<?xml version="1.0" encoding="UTF-8"?>
<svg version="1.1" xmlns="http://www.w3.org/2000/svg" width="673" height="460">
<path d="M0 0 C222.09 0 444.18 0 673 0 C673 151.8 673 303.6 673 460 C450.91 460 228.82 460 0 460 C0 308.2 0 156.4 0 0 Z " fill="#000000" transform="translate(0,0)"/>
<path d="M0 0 C28.76611183 -0.16065467 28.76611183 -0.16065467 43.09042931 -0.20101547 C50.80273809 -0.22308454 58.51487171 -0.25099365 66.22705078 -0.30175781 C72.99629551 -0.34629355 79.76535066 -0.36920481 86.53473282 -0.37950897 C89.10443218 -0.38684278 91.67412237 -0.40116217 94.24374008 -0.42292023 C112.97725389 -0.5750919 129.52483956 0.76358995 147 8 C147 8.66 147 9.32 147 10 C148.32 10 149.64 10 151 10 C151 10.66 151 11.32 151 12 C151.721875 12.2475 152.44375 12.495 153.1875 12.75 C156.26894735 14.11953215 158.4060245 15.85997022 161 18 C161.86625 18.515625 162.7325 19.03125 163.625 19.5625 C166.79194623 21.47933587 168.51846528 23.16825821 170.375 26.375 C171.90424387 29.10894022 171.90424387 29.10894022 174.375 31.18359375 C177.44779646 34.48044829 178.92836763 37.56766815 180.625 41.6875 C180.91117187 42.34427734 181.19734375 43.00105469 181.4921875 43.67773438 C182.3807727 45.76792912 183.19782329 47.87523205 184 50 C184.28681641 50.70906494 184.57363281 51.41812988 184.86914062 52.14868164 C187.5302197 59.57123642 187.38981708 67.02331478 187.28125 74.79858398 C187.24963154 77.08919284 187.24022325 79.37911474 187.234375 81.66992188 C187.16413107 92.83586893 187.16413107 92.83586893 186 94 C185.63239269 96.32817964 185.29758419 98.6618385 185 101 C184.34 101 183.68 101 183 101 C182.82984375 101.556875 182.6596875 102.11375 182.484375 102.6875 C179.72797504 111.36722752 177.35189898 117.29852732 170 123 C169.1003675 124.06296636 168.22469321 125.14670604 167.375 126.25 C164.35071942 129.75179856 164.35071942 129.75179856 161 130 C161 130.66 161 131.32 161 132 C160.34 132 159.68 132 159 132 C158.90460938 132.62003906 158.80921875 133.24007812 158.7109375 133.87890625 C158 136 158 136 154.625 137.9375 C153.08649294 138.63204186 151.54444778 139.31877065 150 140 C148.63101563 140.67482422 148.63101563 140.67482422 147.234375 141.36328125 C146.29078125 141.82089844 145.3471875 142.27851563 144.375 142.75 C143.49585938 143.17796875 142.61671875 143.6059375 141.7109375 144.046875 C138.65726366 145.12050096 136.21370985 145.16963864 133 145 C135.83310502 150.78938852 139.47567775 154.68123995 144.171875 159.08203125 C146 161 146 161 146 163 C146.66 163 147.32 163 148 163 C148 163.66 148 164.32 148 165 C148.66 165 149.32 165 150 165 C150.40347656 165.69222656 150.80695313 166.38445312 151.22265625 167.09765625 C153.87568733 171.42996853 157.51873966 174.60507309 161.17382812 178.09570312 C164.66764468 181.49302762 167.31777526 184.9029754 170 189 C170.99 189.66 171.98 190.32 173 191 C173 191.66 173 192.32 173 193 C173.66 193 174.32 193 175 193 C176.02594951 194.65081961 177.02123738 196.32077354 178 198 C179.27226159 199.53427725 180.58840422 201.03282693 181.9375 202.5 C182.71867187 203.35851562 183.49984375 204.21703125 184.3046875 205.1015625 C186.27313846 207.21836049 188.25560908 209.31412849 190.2578125 211.3984375 C190.80574463 211.97529297 191.35367676 212.55214844 191.91821289 213.14648438 C192.99994784 214.28363114 194.09011284 215.41282777 195.18920898 216.53320312 C199 220.5514726 199 220.5514726 199 225 C191.76012611 225.28005317 184.52165759 225.47199556 177.27758789 225.60424805 C174.81644509 225.65940016 172.35566004 225.73434651 169.89575195 225.82983398 C148.29914949 226.64686102 148.29914949 226.64686102 143.54467773 222.74853516 C141.25614435 219.94041558 139.63428148 217.22326539 138 214 C136.94828199 212.69307779 135.85709237 211.41608639 134.71484375 210.1875 C134.01391602 209.38119141 134.01391602 209.38119141 133.29882812 208.55859375 C132.36057113 207.48437699 131.41756588 206.41429526 130.47070312 205.34765625 C127 201.33204783 127 201.33204783 127 198 C126.4225 197.7525 125.845 197.505 125.25 197.25 C122.65091342 195.80606301 120.92163162 194.26478013 119 192 C119 191.01 119 190.02 119 189 C118.34 189 117.68 189 117 189 C117 188.34 117 187.68 117 187 C116.34 187 115.68 187 115 187 C115 186.34 115 185.68 115 185 C114.34 185 113.68 185 113 185 C113 184.34 113 183.68 113 183 C112.34 183 111.68 183 111 183 C111 182.34 111 181.68 111 181 C110.34 181 109.68 181 109 181 C107.66015625 179.70703125 107.66015625 179.70703125 106.0625 177.8125 C105.44761719 177.08933594 104.83273437 176.36617187 104.19921875 175.62109375 C103.47347656 174.75613281 102.74773437 173.89117187 102 173 C101.09047193 171.9278522 100.18027742 170.85626951 99.26953125 169.78515625 C96.95035477 167.05448143 94.63281143 164.3225351 92.33105469 161.57714844 C91.41328705 160.48969816 90.48624508 159.4100306 89.55175781 158.33691406 C86 154.21527533 86 154.21527533 86 152 C81.53062357 150.91171212 77.15130332 149.955826 72.5625 149.5625 C65.47794947 148.85898192 58.9294458 146.390259 52.33984375 143.81640625 C48.05705521 142.32207769 43.65272671 141.22233121 39.26953125 140.0625 C36.13591533 139.04416842 33.73988902 137.80384153 31 136 C27.7311517 134.10195905 24.73939089 133.50991694 21 133 C21 132.34 21 131.68 21 131 C18.36 130.34 15.72 129.68 13 129 C13 128.34 13 127.68 13 127 C11.71222656 126.60167969 11.71222656 126.60167969 10.3984375 126.1953125 C6.97089192 124.98976199 3.85826202 123.52755614 0.625 121.875 C-0.43460937 121.33617187 -1.49421875 120.79734375 -2.5859375 120.2421875 C-3.38257813 119.83226562 -4.17921875 119.42234375 -5 119 C-5 118.34 -5 117.68 -5 117 C-5.56460938 116.88785156 -6.12921875 116.77570313 -6.7109375 116.66015625 C-18.21047387 113.34373706 -28.17168642 102.92230938 -36.67578125 94.98046875 C-38.94174003 92.93520248 -38.94174003 92.93520248 -41.578125 91.4765625 C-44.09048372 89.94483412 -45.57783749 88.44852852 -47.4375 86.1875 C-49.66235827 83.53328312 -51.91851464 81.06390128 -54.4375 78.6875 C-57 76 -57 76 -57 73 C-57.66 73 -58.32 73 -59 73 C-59 72.34 -59 71.68 -59 71 C-59.8971875 70.9071875 -59.8971875 70.9071875 -60.8125 70.8125 C-63.91438595 69.66037093 -64.40847498 67.86474503 -66 65 C-66.8771658 63.92203721 -67.77379336 62.85966941 -68.6875 61.8125 C-71 59 -71 59 -71 57 C-71.66 57 -72.32 57 -73 57 C-73.495 55.515 -73.495 55.515 -74 54 C-74.99163224 52.99170168 -75.99267429 51.99262023 -77 51 C-80.27564322 46.1557389 -82.77244836 42.02509722 -82 36 C-77.31792178 39.74566258 -73.14556906 43.80953163 -69.0625 48.1875 C-68.56580811 48.71053711 -68.06911621 49.23357422 -67.55737305 49.77246094 C-64 53.64373812 -64 53.64373812 -64 57 C-63.401875 57.103125 -62.80375 57.20625 -62.1875 57.3125 C-59.68741714 58.09824033 -58.62464918 58.96918853 -57 61 C-57 61.66 -57 62.32 -57 63 C-56.4534375 63.0721875 -55.906875 63.144375 -55.34375 63.21875 C-51.06989267 64.64336911 -48.01396325 68.05381212 -44.65625 70.96875 C-42.26118167 72.80027284 -40.93139188 73.61283503 -38 74 C-38 74.66 -38 75.32 -38 76 C-36.453125 76.37125 -36.453125 76.37125 -34.875 76.75 C-31.06725852 77.8357104 -28.13597885 79.55240675 -25 82 C-25 82.66 -25 83.32 -25 84 C-24.113125 84.0825 -23.22625 84.165 -22.3125 84.25 C-19 85 -19 85 -16.6953125 86.8828125 C-13.73766812 89.20606359 -11.08602939 90.3384345 -7.5625 91.625 C-6.47066406 92.02976562 -5.37882812 92.43453125 -4.25390625 92.8515625 C-1.18008435 93.93644082 1.90349787 94.98184394 5 96 C5 96.66 5 97.32 5 98 C5.845625 97.938125 6.69125 97.87625 7.5625 97.8125 C10.87690502 97.99328573 12.84197642 98.7311671 15.79296875 100.13671875 C19.82247811 101.71286312 24.08135264 102.45686969 28.3046875 103.3515625 C31 104 31 104 32 105 C34.938339 105.37723911 37.86554971 105.70781593 40.8125 106 C42.44427313 106.1640746 44.0757963 106.3306585 45.70703125 106.5 C46.4338208 106.5721875 47.16061035 106.644375 47.90942383 106.71875 C50 107 50 107 51.97705078 107.51367188 C54.23942598 108.05755932 56.33576432 108.19299681 58.66015625 108.28125 C59.53607422 108.31863281 60.41199219 108.35601562 61.31445312 108.39453125 C63.15038489 108.46499345 64.98632242 108.53530532 66.82226562 108.60546875 C68.13420898 108.66154297 68.13420898 108.66154297 69.47265625 108.71875 C70.26937744 108.74904297 71.06609863 108.77933594 71.88696289 108.81054688 C74 109 74 109 77 110 C79.71054392 110.10906699 82.39455626 110.1640445 85.10546875 110.16796875 C85.90350418 110.17129715 86.70153961 110.17462555 87.52375793 110.17805481 C89.21415634 110.18311733 90.90456473 110.18546334 92.5949707 110.18530273 C95.16049081 110.18747711 97.72557228 110.20560609 100.29101562 110.22460938 C101.93749854 110.227546 103.58398348 110.22952899 105.23046875 110.23046875 C105.98909714 110.23765427 106.74772552 110.24483978 107.52934265 110.25224304 C115.10278278 110.22034531 121.24378007 108.53897234 128 105 C128.66 105 129.32 105 130 105 C130 104.34 130 103.68 130 103 C131.20739046 101.889318 132.46734831 100.83534451 133.75 99.8125 C137.64666709 96.51585068 139.76350554 93.5624487 142 89 C142.33 88.34 142.66 87.68 143 87 C144.01106854 76.30359209 144.12130504 64.67910079 139 55 C136.64581624 52.06026719 136.64581624 52.06026719 134 50 C133.44618149 49.20002594 132.89236298 48.40005188 132.32176208 47.57583618 C129.41278239 44.34852223 126.36825545 43.09156135 122.35180664 41.72412109 C121.60235559 41.46652197 120.85290453 41.20892284 120.08074284 40.94351768 C111.83483663 38.32686536 103.94407121 38.23444973 95.37109375 38.4140625 C93.7587291 38.42529582 92.14634353 38.43381635 90.53395081 38.43978882 C86.352919 38.46236322 82.17319977 38.52100035 77.99267578 38.5880127 C72.94319017 38.66110624 67.89325802 38.68789152 62.84339142 38.72273254 C55.22802337 38.78031191 47.61551731 38.89549227 40 39 C40 58.14 40 77.28 40 97 C31.66666667 97 31.66666667 97 27 95 C25.52602515 94.68313784 24.04575258 94.3951208 22.5625 94.125 C15.91434985 92.87784324 9.47766295 90.92276451 3 89 C3 88.34 3 87.68 3 87 C2.01 87 1.02 87 0 87 C0 58.29 0 29.58 0 0 Z " fill="#FBFAFB" transform="translate(290,117)"/>
<path d="M0 0 C31.60653506 -0.1209091 31.60653506 -0.1209091 44.8515625 -0.14648438 C53.99679613 -0.16428501 63.14194684 -0.18521088 72.28710938 -0.22631836 C78.94750146 -0.2562425 85.60782628 -0.27558016 92.26828372 -0.28226548 C95.79418637 -0.28617266 99.31989656 -0.2953401 102.84573746 -0.31719017 C106.7840762 -0.34139804 110.72222755 -0.34196805 114.66064453 -0.34057617 C116.40960274 -0.35675491 116.40960274 -0.35675491 118.19389343 -0.3732605 C123.94511593 -0.35123505 128.00282251 -0.16359017 133 3 C135.10800633 3.62316976 137.23431377 4.18800655 139.375 4.6875 C140.43460938 4.93886719 141.49421875 5.19023438 142.5859375 5.44921875 C143.38257813 5.63097656 144.17921875 5.81273438 145 6 C144.67 6.66 144.34 7.32 144 8 C143.03320312 7.73445313 142.06640625 7.46890625 141.0703125 7.1953125 C139.75525535 6.83836842 138.44014845 6.48160756 137.125 6.125 C136.49335938 5.95097656 135.86171875 5.77695313 135.2109375 5.59765625 C125.73523167 3.03921568 116.86866986 1.70105755 107.03271484 1.68115234 C105.88033325 1.67110672 104.72795166 1.6610611 103.54064941 1.65071106 C99.76408345 1.62003143 95.98758789 1.60288624 92.2109375 1.5859375 C89.57963461 1.56721362 86.94833765 1.54763931 84.31704712 1.5272522 C78.11961973 1.48065938 71.92217519 1.44382164 65.72466338 1.41057932 C57.96872412 1.36844876 50.21288571 1.3131351 42.45703125 1.2578125 C28.63807651 1.15929939 14.81909689 1.08056546 1 1 C1 29.71 1 58.42 1 88 C1.99 88 2.98 88 4 88 C4 88.66 4 89.32 4 90 C4.73605469 90.12117188 5.47210938 90.24234375 6.23046875 90.3671875 C7.20628906 90.53476563 8.18210937 90.70234375 9.1875 90.875 C10.15042969 91.03742188 11.11335938 91.19984375 12.10546875 91.3671875 C14.91964694 91.98243293 17.34071443 92.9123051 20 94 C26.90070807 95.69573714 34.02426302 96.73168419 41 98 C41 78.86 41 59.72 41 40 C43.84653972 38.57673014 46.29214665 38.83317334 49.47485352 38.79125977 C50.1403421 38.78147598 50.80583069 38.7716922 51.4914856 38.76161194 C53.703939 38.73160546 55.91633043 38.71023528 58.12890625 38.69140625 C58.88916548 38.68483442 59.64942471 38.6782626 60.43272209 38.67149162 C64.47230033 38.63884465 68.51185201 38.61443003 72.55151367 38.5949707 C75.86571995 38.57730591 79.17905131 38.54273908 82.49291992 38.49243164 C86.51541286 38.43144982 90.53710836 38.40138708 94.56004143 38.39179802 C96.07839165 38.38335672 97.59672729 38.36482792 99.11480904 38.3350544 C110.62248177 38.12187811 124.05836878 39.28670917 133.31788635 46.9077301 C134.73556532 48.53660418 135.8305994 50.19011497 137 52 C137.65871094 52.62648437 138.31742188 53.25296875 138.99609375 53.8984375 C145.1407332 60.34252332 145.39735563 69.80205694 145.5 78.25 C145.52755371 79.50876953 145.52755371 79.50876953 145.55566406 80.79296875 C145.48482765 87.96728057 143.45936146 92.99308259 138.9296875 98.53125 C137.91261719 99.50578125 137.91261719 99.50578125 136.875 100.5 C136.19179688 101.1703125 135.50859375 101.840625 134.8046875 102.53125 C133 104 133 104 131 104 C131 104.66 131 105.32 131 106 C129.46378265 106.82275672 127.92071368 107.63272577 126.375 108.4375 C125.51648438 108.88996094 124.65796875 109.34242188 123.7734375 109.80859375 C118.16014169 112.21993913 112.42871256 112.14861496 106.42578125 112.1328125 C105.62013229 112.13376923 104.81448334 112.13472595 103.98442078 112.13571167 C102.29096396 112.13638907 100.59750449 112.1345656 98.90405273 112.13037109 C96.31032522 112.12499549 93.7167692 112.13034175 91.12304688 112.13671875 C89.47395795 112.1360583 87.82486913 112.13477783 86.17578125 112.1328125 C85.4007576 112.13483673 84.62573395 112.13686096 83.82722473 112.13894653 C80.62108123 112.12493291 78.06389736 112.02129912 75 111 C73.62286641 110.87668237 72.24127 110.79940767 70.859375 110.75390625 C70.04299561 110.72232422 69.22661621 110.69074219 68.38549805 110.65820312 C67.51578369 110.62662109 66.64606934 110.59503906 65.75 110.5625 C57.05970745 110.19213268 48.60209244 109.31864411 40 108 C38.78828125 107.84402344 37.5765625 107.68804687 36.328125 107.52734375 C33.63601211 107.10077657 31.54361428 106.61032288 29.0625 105.5625 C26.3325027 104.47261736 23.67339989 103.61508155 20.8125 102.9375 C17 102 17 102 14.375 100.9375 C11.60869786 99.84553863 8.93779433 99.40992479 6 99 C6 98.34 6 97.68 6 97 C5.154375 96.896875 4.30875 96.79375 3.4375 96.6875 C-0.41442701 95.9171146 -3.44075031 94.63725486 -7 93 C-7 92.67 -7 92.34 -7 92 C-3.535 91.01 -3.535 91.01 0 90 C0 60.3 0 30.6 0 0 Z " fill="#020202" transform="translate(289,116)"/>
<path d="M0 0 C2.475 0.495 2.475 0.495 5 1 C5.185625 1.804375 5.37125 2.60875 5.5625 3.4375 C7.2457548 7.60904449 9.58539404 10.51131632 12.44140625 13.94921875 C14 16 14 16 15 19 C16.62776556 20.73199161 18.27855644 22.36535191 20 24 C22.61209398 26.55446909 25.21169865 29.12154192 27.8125 31.6875 C28.50537109 32.36361328 29.19824219 33.03972656 29.91210938 33.73632812 C30.56630859 34.38408203 31.22050781 35.03183594 31.89453125 35.69921875 C32.78942261 36.57839966 32.78942261 36.57839966 33.70239258 37.4753418 C35 39 35 39 35 41 C35.5775 41.0825 36.155 41.165 36.75 41.25 C39.7267237 42.24224123 41.0027526 43.5926456 43 46 C43.49219131 48.42874527 43.49219131 48.42874527 43.48101807 51.1885376 C43.48651672 52.23739136 43.49201538 53.28624512 43.49768066 54.36688232 C43.48329956 55.5119928 43.46891846 56.65710327 43.45410156 57.83691406 C43.45468567 59.04694092 43.45526978 60.25696777 43.45587158 61.50366211 C43.45356302 64.81776067 43.43351078 68.13086129 43.40557575 71.44478321 C43.38056223 74.90942759 43.37822016 78.37408541 43.37347412 81.83880615 C43.36104412 88.39783819 43.32822245 94.95660339 43.28807616 101.51551795 C43.24335899 108.98338736 43.22137159 116.45126955 43.20129442 123.91923952 C43.15948956 139.27967383 43.08613725 154.63974061 43 170 C28.81 170 14.62 170 0 170 C0 113.9 0 57.8 0 0 Z " fill="#F7921C" transform="translate(207,172)"/>
<path d="M0 0 C2.31 0.33 4.62 0.66 7 1 C7 1.66 7 2.32 7 3 C9.97 3.99 12.94 4.98 16 6 C16 6.66 16 7.32 16 8 C17.11375 8.2475 18.2275 8.495 19.375 8.75 C23.59476324 9.8012131 27.51875337 11.31935999 31.52734375 12.9921875 C33.85022655 13.9389549 36.18836037 14.75554735 38.5625 15.5625 C39.696875 16.036875 40.83125 16.51125 42 17 C43.1670663 20.50119889 43.08989693 23.58934841 43.02172852 27.2253418 C43.01212097 27.95729767 43.00251343 28.68925354 42.99261475 29.44338989 C42.95964093 31.86209786 42.9193025 34.2806243 42.87890625 36.69921875 C42.85460355 38.37644308 42.83076006 40.05367412 42.80735779 41.73091125 C42.74453178 46.1450668 42.67546091 50.55910348 42.60510254 54.97314453 C42.52197555 60.26945314 42.44658148 65.56587676 42.36989594 70.8622818 C42.25253112 78.90829173 42.12532566 86.95409238 42 95 C28.14 95 14.28 95 0 95 C0 63.65 0 32.3 0 0 Z " fill="#FCFCFE" transform="translate(290,247)"/>
<path d="M0 0 C13.86 0 27.72 0 42 0 C42 21.12 42 42.24 42 64 C40.68 63.67 39.36 63.34 38 63 C37.67 62.34 37.34 61.68 37 61 C35.700625 60.38125 35.700625 60.38125 34.375 59.75 C28.1086793 56.50079667 23.6304239 51.76601103 19.109375 46.42578125 C17.40426927 44.46490966 15.66922502 42.56105949 13.890625 40.66796875 C13.34301514 40.084104 12.79540527 39.50023926 12.23120117 38.89868164 C11.12830258 37.72639806 10.021748 36.55754222 8.91137695 35.39233398 C5 31.22048936 5 31.22048936 5 29 C4.34 29 3.68 29 3 29 C0.27393944 25.36677144 -0.36504672 22.75457909 -0.29296875 18.26171875 C-0.28547607 17.29967529 -0.2779834 16.33763184 -0.27026367 15.34643555 C-0.24295166 14.13898682 -0.21563965 12.93153809 -0.1875 11.6875 C-0.125625 7.830625 -0.06375 3.97375 0 0 Z " fill="#F28E1F" transform="translate(208,117)"/>
<path d="M0 0 C31.60653506 -0.1209091 31.60653506 -0.1209091 44.8515625 -0.14648438 C53.99679613 -0.16428501 63.14194684 -0.18521088 72.28710938 -0.22631836 C78.94750146 -0.2562425 85.60782628 -0.27558016 92.26828372 -0.28226548 C95.79418637 -0.28617266 99.31989656 -0.2953401 102.84573746 -0.31719017 C106.7840762 -0.34139804 110.72222755 -0.34196805 114.66064453 -0.34057617 C116.40960274 -0.35675491 116.40960274 -0.35675491 118.19389343 -0.3732605 C123.94511593 -0.35123505 128.00282251 -0.16359017 133 3 C135.10800633 3.62316976 137.23431377 4.18800655 139.375 4.6875 C140.43460938 4.93886719 141.49421875 5.19023438 142.5859375 5.44921875 C143.38257813 5.63097656 144.17921875 5.81273438 145 6 C144.67 6.66 144.34 7.32 144 8 C143.03320312 7.73445313 142.06640625 7.46890625 141.0703125 7.1953125 C139.75525535 6.83836842 138.44014845 6.48160756 137.125 6.125 C136.49335938 5.95097656 135.86171875 5.77695313 135.2109375 5.59765625 C125.73523167 3.03921568 116.86866986 1.70105755 107.03271484 1.68115234 C105.88033325 1.67110672 104.72795166 1.6610611 103.54064941 1.65071106 C99.76408345 1.62003143 95.98758789 1.60288624 92.2109375 1.5859375 C89.57963461 1.56721362 86.94833765 1.54763931 84.31704712 1.5272522 C78.11961973 1.48065938 71.92217519 1.44382164 65.72466338 1.41057932 C57.96872412 1.36844876 50.21288571 1.3131351 42.45703125 1.2578125 C28.63807651 1.15929939 14.81909689 1.08056546 1 1 C1 29.71 1 58.42 1 88 C1.99 88 2.98 88 4 88 C4 88.66 4 89.32 4 90 C4.73605469 90.12117188 5.47210938 90.24234375 6.23046875 90.3671875 C7.20628906 90.53476563 8.18210937 90.70234375 9.1875 90.875 C10.15042969 91.03742188 11.11335938 91.19984375 12.10546875 91.3671875 C14.91964694 91.98243293 17.34071443 92.9123051 20 94 C26.90070807 95.69573714 34.02426302 96.73168419 41 98 C41 78.86 41 59.72 41 40 C43.89881592 38.55059204 46.42683772 38.8646771 49.6652832 38.85473633 C50.3500473 38.85137772 51.0348114 38.8480191 51.74032593 38.84455872 C54.01049603 38.83503825 56.28059241 38.83310487 58.55078125 38.83203125 C60.1277825 38.82881876 61.70478344 38.82545469 63.28178406 38.82194519 C66.59142752 38.81595071 69.90104485 38.81410555 73.21069336 38.81469727 C77.44760354 38.81479875 81.68434563 38.80116189 85.92121601 38.78392506 C89.18034125 38.77279338 92.43942605 38.77077844 95.69856834 38.77130699 C97.26024135 38.77012805 98.82191543 38.76571105 100.38356972 38.75797462 C102.5713429 38.74815379 104.75875392 38.75106119 106.9465332 38.75708008 C108.19070511 38.75565506 109.43487701 38.75423004 110.7167511 38.75276184 C113.90979391 38.99320722 116.12987071 39.62732577 119 41 C119 41.33 119 41.66 119 42 C94.25 42 69.5 42 44 42 C44 61.14 44 80.28 44 100 C28 99 28 99 27 98 C24.66702567 97.95907063 22.33294775 97.95758277 20 98 C20 98.66 20 99.32 20 100 C21.65 100 23.3 100 25 100 C25 100.66 25 101.32 25 102 C25.6290625 102.10957031 26.258125 102.21914062 26.90625 102.33203125 C32.56623682 103.38049266 37.6694886 104.82831017 43 107 C37.36465205 108.87844932 32.33443856 106.86873904 27.046875 104.7578125 C24.98401318 103.99408122 22.95185666 103.44418973 20.8125 102.9375 C17 102 17 102 14.375 100.9375 C11.60869786 99.84553863 8.93779433 99.40992479 6 99 C6 98.34 6 97.68 6 97 C5.154375 96.896875 4.30875 96.79375 3.4375 96.6875 C-0.41442701 95.9171146 -3.44075031 94.63725486 -7 93 C-7 92.67 -7 92.34 -7 92 C-3.535 91.01 -3.535 91.01 0 90 C0 60.3 0 30.6 0 0 Z " fill="#767675" transform="translate(289,116)"/>
<path d="M0 0 C2.475 0.495 2.475 0.495 5 1 C5.185625 1.804375 5.37125 2.60875 5.5625 3.4375 C7.2457548 7.60904449 9.58539404 10.51131632 12.44140625 13.94921875 C14 16 14 16 15 19 C16.62776556 20.73199161 18.27855644 22.36535191 20 24 C22.61209398 26.55446909 25.21169865 29.12154192 27.8125 31.6875 C28.50537109 32.36361328 29.19824219 33.03972656 29.91210938 33.73632812 C30.56630859 34.38408203 31.22050781 35.03183594 31.89453125 35.69921875 C32.78942261 36.57839966 32.78942261 36.57839966 33.70239258 37.4753418 C35 39 35 39 35 41 C35.5775 41.0825 36.155 41.165 36.75 41.25 C39.7267237 42.24224123 41.0027526 43.5926456 43 46 C43.49219131 48.42874527 43.49219131 48.42874527 43.48101807 51.1885376 C43.48651672 52.23739136 43.49201538 53.28624512 43.49768066 54.36688232 C43.48329956 55.5119928 43.46891846 56.65710327 43.45410156 57.83691406 C43.45468567 59.04694092 43.45526978 60.25696777 43.45587158 61.50366211 C43.45356302 64.81776067 43.43351078 68.13086129 43.40557575 71.44478321 C43.38056223 74.90942759 43.37822016 78.37408541 43.37347412 81.83880615 C43.36104412 88.39783819 43.32822245 94.95660339 43.28807616 101.51551795 C43.24335899 108.98338736 43.22137159 116.45126955 43.20129442 123.91923952 C43.15948956 139.27967383 43.08613725 154.63974061 43 170 C28.81 170 14.62 170 0 170 C0 113.9 0 57.8 0 0 Z M2 5 C2 58.46 2 111.92 2 167 C15.2 167 28.4 167 42 167 C42 127.4 42 87.8 42 47 C40.68 46.67 39.36 46.34 38 46 C38 45.34 38 44.68 38 44 C37.01 44 36.02 44 35 44 C34.731875 43.360625 34.46375 42.72125 34.1875 42.0625 C33.11332248 39.66868314 33.11332248 39.66868314 30 39 C29.67 38.01 29.34 37.02 29 36 C28.01 36 27.02 36 26 36 C26 35.01 26 34.02 26 33 C24.68 32.67 23.36 32.34 22 32 C21.505 29.525 21.505 29.525 21 27 C20.34 27 19.68 27 19 27 C19 26.34 19 25.68 19 25 C18.01 25 17.02 25 16 25 C15.34 23.35 14.68 21.7 14 20 C13.01 20 12.02 20 11 20 C11.1546875 18.948125 11.1546875 18.948125 11.3125 17.875 C10.84845676 13.6058022 9.01880055 12.01880055 6 9 C5.01 9 4.02 9 3 9 C2.67 7.68 2.34 6.36 2 5 Z " fill="#C98024" transform="translate(207,172)"/>
<path d="M0 0 C5.4556837 2.12405077 10.81634671 4.27176143 16 7 C16 7.66 16 8.32 16 9 C17.423125 9.2165625 17.423125 9.2165625 18.875 9.4375 C22 10 22 10 24 11 C24 11.66 24 12.32 24 13 C25.2375 12.87625 25.2375 12.87625 26.5 12.75 C30.32748411 13.02339172 32.48109538 14.00544776 35.77734375 15.83203125 C41.13600353 18.6479175 46.51526568 20.525853 52.375 22 C68.04364682 26.04364682 68.04364682 26.04364682 71 29 C68.8128711 30.32789969 67.52279544 31.04752686 64.9375 30.8125 C63 30 63 30 61.75 28.3125 C60.09757628 26.75591421 60.09757628 26.75591421 58.03515625 27.25 C56.00458739 27.76388737 53.99982278 28.37710438 52 29 C52 29.66 52 30.32 52 31 C50.02 31 48.04 31 46 31 C46 56.08 46 81.16 46 107 C31.48 107 16.96 107 2 107 C2 74.33 2 41.66 2 8 C2.66 7.67 3.32 7.34 4 7 C3.34 6.34 2.68 5.68 2 5 C2 4.01 2 3.02 2 2 C1.34 2 0.68 2 0 2 C0 1.34 0 0.68 0 0 Z M3 10 C3 41.35 3 72.7 3 105 C16.86 105 30.72 105 45 105 C45.32329482 91.38805316 45.32329482 91.38805316 45.59960938 77.77539062 C45.70184358 72.22458117 45.80962108 66.67426163 45.94995117 61.12426758 C46.06272267 56.65063317 46.15101219 52.1771288 46.22220421 47.70264626 C46.25371916 45.99400219 46.29411662 44.28549855 46.34345436 42.57727623 C46.41097013 40.18759042 46.4471263 37.79935808 46.47583008 35.40893555 C46.5031572 34.69971451 46.53048431 33.99049347 46.55863953 33.25978088 C46.62029367 31.05321953 46.62029367 31.05321953 46 28 C42.73243154 25.36585948 39.16732804 24.2518463 35.1875 23 C31.54413989 21.8319684 27.94255553 20.63267234 24.375 19.25 C21.28725792 17.88422855 21.28725792 17.88422855 19 18 C18.67 17.01 18.34 16.02 18 15 C16.12612784 14.19787372 16.12612784 14.19787372 13.9375 13.8125 C13.20402344 13.65394531 12.47054688 13.49539062 11.71484375 13.33203125 C11.14894531 13.22246094 10.58304687 13.11289063 10 13 C10 12.34 10 11.68 10 11 C7.69 10.67 5.38 10.34 3 10 Z " fill="#232227" transform="translate(287,237)"/>
<path d="M0 0 C0.76166977 0.00222061 1.52333954 0.00444122 2.30809021 0.00672913 C3.16890701 0.00680466 4.02972382 0.00688019 4.91662598 0.00695801 C5.8520372 0.01211929 6.78744843 0.01728058 7.75120544 0.02259827 C8.70422043 0.02401321 9.65723541 0.02542816 10.63912964 0.02688599 C13.69605085 0.032503 16.75289996 0.04505836 19.80979919 0.05775452 C21.87685543 0.06276733 23.94391281 0.06733061 26.01097107 0.07142639 C31.08977507 0.08247795 36.16852489 0.09975397 41.24729919 0.12025452 C42.67515269 2.97596151 42.36671406 5.39739808 42.36082458 8.5894928 C42.36097061 9.25302765 42.36111664 9.9165625 42.36126709 10.60020447 C42.36056951 12.79702505 42.35278434 14.99376122 42.34495544 17.19056702 C42.34309072 18.71228489 42.34166707 20.23400336 42.34066772 21.75572205 C42.33684686 25.76376499 42.32702024 29.77177177 42.31596375 33.77980042 C42.30574038 37.86854056 42.30116812 41.95728653 42.29612732 46.04603577 C42.2853976 54.07079195 42.26832633 62.09551874 42.24729919 70.12025452 C43.23729919 70.45025452 44.22729919 70.78025452 45.24729919 71.12025452 C45.24729919 72.11025452 45.24729919 73.10025452 45.24729919 74.12025452 C45.90729919 74.12025452 46.56729919 74.12025452 47.24729919 74.12025452 C47.57729919 76.10025452 47.90729919 78.08025452 48.24729919 80.12025452 C46.59729919 79.46025452 44.94729919 78.80025452 43.24729919 78.12025452 C43.24729919 77.46025452 43.24729919 76.80025452 43.24729919 76.12025452 C42.53831482 76.04806702 41.82933044 75.97587952 41.09886169 75.90150452 C37.43647529 74.89811098 35.47585994 73.10434596 32.62229919 70.62025452 C28.8033643 67.22898855 28.8033643 67.22898855 24.24729919 65.12025452 C22.91396586 63.45358785 21.58063253 61.78692118 20.24729919 60.12025452 C18.76229919 59.62525452 18.76229919 59.62525452 17.24729919 59.12025452 C16.63434998 58.09351624 16.63434998 58.09351624 16.00901794 57.04603577 C13.54844788 52.95963448 10.34194673 49.74791918 7.05979919 46.30775452 C6.40559998 45.61488342 5.75140076 44.92201233 5.07737732 44.20814514 C3.47134043 42.50832508 1.86126277 40.8125442 0.24729919 39.12025452 C0.24729919 41.10025452 0.24729919 43.08025452 0.24729919 45.12025452 C-0.41270081 45.12025452 -1.07270081 45.12025452 -1.75270081 45.12025452 C-1.75270081 42.15025452 -1.75270081 39.18025452 -1.75270081 36.12025452 C-1.09270081 36.12025452 -0.43270081 36.12025452 0.24729919 36.12025452 C0.74229919 33.15025452 0.74229919 33.15025452 1.24729919 30.12025452 C-0.07270081 29.79025452 -1.39270081 29.46025452 -2.75270081 29.12025452 C-2.77735962 25.15094462 -2.79554103 21.18166417 -2.80763245 17.21229553 C-2.81267137 15.86105066 -2.81950258 14.50981126 -2.82814026 13.15858459 C-2.840225 11.22005017 -2.84539909 9.28147651 -2.85035706 7.34291077 C-2.85559387 6.17510071 -2.86083069 5.00729065 -2.8662262 3.80409241 C-2.71318871 0.18615453 -2.71318871 0.18615453 0 0 Z M-0.75270081 2.12025452 C-0.81457581 5.97712952 -0.87645081 9.83400452 -0.94020081 13.80775452 C-0.96751282 15.01520325 -0.99482483 16.22265198 -1.02296448 17.46669006 C-1.03045715 18.42873352 -1.03794983 19.39077698 -1.04566956 20.38197327 C-1.06138 21.36125793 -1.07709045 22.3405426 -1.09327698 23.34950256 C-0.6920229 26.61389861 0.28304929 28.50234904 2.24729919 31.12025452 C2.90729919 31.12025452 3.56729919 31.12025452 4.24729919 31.12025452 C4.50922058 31.70363586 4.77114197 32.28701721 5.04100037 32.88807678 C6.31429172 35.24421984 7.70745147 36.8957964 9.54808044 38.83509827 C10.19583435 39.52152405 10.84358826 40.20794983 11.51097107 40.91517639 C12.18708435 41.62222717 12.86319763 42.32927795 13.55979919 43.05775452 C14.22431091 43.76093811 14.88882263 44.4641217 15.57347107 45.18861389 C22.49374775 52.5144558 22.49374775 52.5144558 29.87229919 59.37025452 C30.44206482 59.87041077 31.01183044 60.37056702 31.59886169 60.88587952 C33.34356015 62.32762366 33.34356015 62.32762366 36.24729919 63.12025452 C36.90729919 64.11025452 37.56729919 65.10025452 38.24729919 66.12025452 C39.23729919 66.12025452 40.22729919 66.12025452 41.24729919 66.12025452 C41.24729919 45.00025452 41.24729919 23.88025452 41.24729919 2.12025452 C27.38729919 2.12025452 13.52729919 2.12025452 -0.75270081 2.12025452 Z " fill="#2D1404" transform="translate(208.75270080566406,114.87974548339844)"/>
<path d="M0 0 C2.91227269 3.28804981 4.49701212 5.59885603 5 10 C5.99 10.33 6.98 10.66 8 11 C8 11.99 8 12.98 8 14 C8.66 14 9.32 14 10 14 C11.91015625 16.08203125 11.91015625 16.08203125 14.0625 18.8125 C14.77535156 19.70582031 15.48820312 20.59914062 16.22265625 21.51953125 C18 24 18 24 19 27 C19.99 27.33 20.98 27.66 22 28 C22 28.66 22 29.32 22 30 C22.66 30 23.32 30 24 30 C24.42925781 30.71800781 24.85851562 31.43601563 25.30078125 32.17578125 C27.23395009 35.38884119 29.4783251 37.60342409 32.1875 40.1875 C33.82879568 41.75365768 35.44324599 43.34978233 37 45 C37 45.66 37 46.32 37 47 C37.57621094 47.08507812 38.15242188 47.17015625 38.74609375 47.2578125 C41.64295597 48.2117186 42.97016473 49.67381491 45.0625 51.875 C45.73410156 52.57367188 46.40570313 53.27234375 47.09765625 53.9921875 C47.72542969 54.65476563 48.35320312 55.31734375 49 56 C49.99664994 57.00333887 50.99531624 58.0047058 52 59 C49.69 59 47.38 59 45 59 C45 58.34 45 57.68 45 57 C44.34 57 43.68 57 43 57 C42.67 98.58 42.34 140.16 42 183 C27.81 183 13.62 183 -1 183 C-1 182.67 -1 182.34 -1 182 C12.86 182 26.72 182 41 182 C40.95972203 165.90131016 40.90299306 149.80296535 40.81609726 133.70447159 C40.77628004 126.22973518 40.74390127 118.75510447 40.72900391 111.28027344 C40.71600118 104.7655414 40.68907219 98.25104165 40.64538693 91.73644042 C40.62274061 88.28662987 40.60709118 84.83710614 40.60811615 81.38721466 C40.60899925 77.53687442 40.57879209 73.68712136 40.54589844 69.83691406 C40.5509288 68.69180359 40.55595917 67.54669312 40.56114197 66.36688232 C40.54722916 65.31802856 40.53331635 64.2691748 40.51898193 63.1885376 C40.51529476 62.27780613 40.51160759 61.36707466 40.50780869 60.42874527 C39.83682763 57.21957988 38.52068375 56.03311576 36 54 C35.01 53.67 34.02 53.34 33 53 C31.38671875 51.36328125 31.38671875 51.36328125 29.6875 49.3125 C27.47906986 46.67361314 25.2773111 44.32223714 22.6875 42.0625 C19.56829701 39.07532676 19.04664208 36.05127098 18.51953125 31.85546875 C18.34808594 31.24316406 18.17664063 30.63085938 18 30 C17.01 29.67 16.02 29.34 15 29 C10 23.53488372 10 23.53488372 10 21 C9.34 21 8.68 21 8 21 C7.34 18.03 6.68 15.06 6 12 C5.01 12 4.02 12 3 12 C3 11.34 3 10.68 3 10 C1.68 9.34 0.36 8.68 -1 8 C-0.01 8 0.98 8 2 8 C2 7.01 2 6.02 2 5 C1.01 5.33 0.02 5.66 -1 6 C-0.67 4.02 -0.34 2.04 0 0 Z " fill="#42290F" transform="translate(209,160)"/>
<path d="M0 0 C0.6847641 -0.00335861 1.3695282 -0.00671722 2.07504272 -0.01017761 C4.34521282 -0.01969807 6.61530921 -0.02163145 8.88549805 -0.02270508 C10.46249929 -0.02591757 12.03950024 -0.02928164 13.61650085 -0.03279114 C16.92614431 -0.03878562 20.23576165 -0.04063078 23.54541016 -0.04003906 C27.78232034 -0.03993757 32.01906243 -0.05357444 36.25593281 -0.07081127 C39.51505804 -0.08194295 42.77414284 -0.08395789 46.03328514 -0.08342934 C47.59495814 -0.08460828 49.15663223 -0.08902527 50.71828651 -0.0967617 C52.90605969 -0.10658254 55.09347072 -0.10367514 57.28125 -0.09765625 C58.52542191 -0.09908127 59.76959381 -0.10050629 61.0514679 -0.10197449 C64.24451071 0.13847089 66.46458751 0.77258945 69.3347168 2.14526367 C69.3347168 2.47526367 69.3347168 2.80526367 69.3347168 3.14526367 C44.5847168 3.14526367 19.8347168 3.14526367 -5.6652832 3.14526367 C-5.6652832 22.28526367 -5.6652832 41.42526367 -5.6652832 61.14526367 C-23.6652832 60.02026367 -23.6652832 60.02026367 -29.6652832 57.14526367 C-29.6652832 56.81526367 -29.6652832 56.48526367 -29.6652832 56.14526367 C-24.58265315 55.97297113 -21.36101949 56.14957575 -16.6652832 58.14526367 C-14.0252832 58.47526367 -11.3852832 58.80526367 -8.6652832 59.14526367 C-8.6652832 40.00526367 -8.6652832 20.86526367 -8.6652832 1.14526367 C-5.76646728 -0.30414429 -3.23844548 0.00994077 0 0 Z " fill="#A1A1A1" transform="translate(338.665283203125,154.854736328125)"/>
<path d="M0 0 C2.31 0.33 4.62 0.66 7 1 C7 1.66 7 2.32 7 3 C9.97 3.99 12.94 4.98 16 6 C14.02 6.99 14.02 6.99 12 8 C12 7.34 12 6.68 12 6 C10.68 6 9.36 6 8 6 C8 5.34 8 4.68 8 4 C7.01 4 6.02 4 5 4 C5 3.34 5 2.68 5 2 C3.68 2 2.36 2 1 2 C1 32.03 1 62.06 1 93 C13.87 93 26.74 93 40 93 C39.67 68.25 39.34 43.5 39 18 C36.525 17.01 36.525 17.01 34 16 C36.7447498 14.8817686 37.80577756 14.92442844 40.61479187 16.01741028 C43 18 43 18 43.56330872 21.28398132 C43.56005864 22.65927139 43.52878247 24.03466143 43.47583008 25.40893555 C43.46680664 26.16039856 43.4577832 26.91186157 43.44848633 27.68609619 C43.41270724 30.17069201 43.34126951 32.65292247 43.26953125 35.13671875 C43.23776937 36.85875099 43.20823179 38.58082557 43.18083191 40.30293274 C43.10271816 44.83604501 42.99435915 49.36795143 42.87976074 53.90026855 C42.74853846 59.33801507 42.65476557 64.77651978 42.55474091 70.21491241 C42.3985645 78.47754701 42.19474547 86.73777885 42 95 C28.14 95 14.28 95 0 95 C0 63.65 0 32.3 0 0 Z " fill="#D4D4D6" transform="translate(290,247)"/>
<path d="M0 0 C0.66 0 1.32 0 2 0 C3.625 2 3.625 2 5 4 C4.34 4.66 3.68 5.32 3 6 C2.81686971 8.81178685 2.75877543 11.52393407 2.78881836 14.33569336 C2.7901326 15.19969757 2.79144684 16.06370178 2.7928009 16.95388794 C2.79932744 19.83264827 2.81981301 22.71114835 2.83984375 25.58984375 C2.84612208 27.60738334 2.85135953 29.62492642 2.85560608 31.64247131 C2.86895515 36.98663887 2.89335601 42.33069375 2.92095947 47.67480469 C2.96897679 57.14644148 3.00228544 66.61812049 3.02734375 76.08984375 C3.0303587 77.10046246 3.03337364 78.11108116 3.03647995 79.15232468 C3.07674857 94.79121778 2.84469703 110.38025861 2 126 C1.34 125.67 0.68 125.34 0 125 C0 83.75 0 42.5 0 0 Z " fill="#090B01" transform="translate(252,217)"/>
<path d="M0 0 C1.0725 0.53625 2.145 1.0725 3.25 1.625 C3.58 4.595 3.91 7.565 4.25 10.625 C4.91 10.625 5.57 10.625 6.25 10.625 C6.518125 11.429375 6.78625 12.23375 7.0625 13.0625 C7.454375 13.908125 7.84625 14.75375 8.25 15.625 C9.24 15.955 10.23 16.285 11.25 16.625 C15.09057948 19.23659404 15.33716804 23.34171156 16.25 27.625 C11.68109553 24.00581163 8.34976935 20.62462799 5.25 15.625 C4.19381655 14.26590099 3.13094475 12.91198117 2.0625 11.5625 C-0.17481085 8.62638173 -1.51334492 6.41148135 -1.75 2.625 C-3.07 2.295 -4.39 1.965 -5.75 1.625 C-5.42 57.725 -5.09 113.825 -4.75 171.625 C9.11 171.955 22.97 172.285 37.25 172.625 C37.25 172.955 37.25 173.285 37.25 173.625 C31.1444529 173.64964513 25.03893449 173.66783371 18.93334961 173.67993164 C16.85456844 173.68497288 14.77579084 173.69180574 12.69702148 173.70043945 C9.71597414 173.71251422 6.73497351 173.71823024 3.75390625 173.72265625 C2.35078941 173.73039818 2.35078941 173.73039818 0.91932678 173.73829651 C-0.37189842 173.73840981 -0.37189842 173.73840981 -1.68920898 173.73852539 C-2.45087875 173.740746 -3.21254852 173.74296661 -3.99729919 173.74525452 C-5.75 173.625 -5.75 173.625 -6.75 172.625 C-6.85931425 170.41038907 -6.89693042 168.19223879 -6.90821838 165.97496033 C-6.91315636 165.2717349 -6.91809434 164.56850947 -6.92318195 163.84397417 C-6.93863061 161.47012266 -6.94693737 159.09629833 -6.95532227 156.72241211 C-6.96489501 155.02770241 -6.97490473 153.33299513 -6.98532104 151.63829041 C-7.0124416 147.02280975 -7.03341232 142.4073188 -7.05332303 137.79180217 C-7.07513864 132.97377679 -7.1025489 128.15578341 -7.12937927 123.33778381 C-7.1793662 114.20759823 -7.22428269 105.07739493 -7.26740164 95.94717461 C-7.31672285 85.55555052 -7.37165989 75.16395852 -7.42708123 64.77236545 C-7.54099334 43.38994019 -7.64781218 22.0074843 -7.75 0.625 C-4.31853881 -1.48550047 -4.10138383 -1.50384074 0 0 Z " fill="#1D0200" transform="translate(212.75,170.375)"/>
<path d="M0 0 C1.32 0.33 2.64 0.66 4 1 C3.01 1 2.02 1 1 1 C1 32.35 1 63.7 1 96 C14.86 96 28.72 96 43 96 C43.11630819 82.38772857 43.11630819 82.38772857 43.1953125 68.77539062 C43.21924144 63.22486107 43.24757494 57.67459498 43.30175781 52.12426758 C43.34516012 47.65036441 43.3691253 43.17674367 43.37950897 38.70264626 C43.38691049 36.99414433 43.40136374 35.28565819 43.42292023 33.57727623 C43.45188053 31.18748726 43.45595924 28.79887123 43.45410156 26.40893555 C43.46848267 25.69971451 43.48286377 24.99049347 43.49768066 24.25978088 C43.52407951 22.05666539 43.52407951 22.05666539 43 19 C41.12120696 16.99772886 41.12120696 16.99772886 39 16 C42.71888239 16.50712033 45.73454239 17.11608215 49 19 C49 19.99 49 20.98 49 22 C47.35 22 45.7 22 44 22 C44 47.08 44 72.16 44 98 C29.48 98 14.96 98 0 98 C0 65.66 0 33.32 0 0 Z " fill="#5A5A5C" transform="translate(289,246)"/>
<path d="M0 0 C0.33 0 0.66 0 1 0 C1 22.44 1 44.88 1 68 C2.485 68.495 2.485 68.495 4 69 C4 69.99 4 70.98 4 72 C4.66 72 5.32 72 6 72 C6.33 73.98 6.66 75.96 7 78 C5.35 77.34 3.7 76.68 2 76 C2 75.34 2 74.68 2 74 C1.29101562 73.9278125 0.58203125 73.855625 -0.1484375 73.78125 C-3.81082391 72.77785646 -5.77143926 70.98409145 -8.625 68.5 C-12.44393489 65.10873403 -12.44393489 65.10873403 -17 63 C-18.33333333 61.33333333 -19.66666667 59.66666667 -21 58 C-21.99 57.67 -22.98 57.34 -24 57 C-23.67 56.34 -23.34 55.68 -23 55 C-20.97954558 55.60183749 -18.97888961 56.27306096 -17 57 C-16.67 57.66 -16.34 58.32 -16 59 C-13.68149993 59.61432869 -13.68149993 59.61432869 -11 60 C-8.25 60.4375 -8.25 60.4375 -6 61 C-5.67 61.66 -5.34 62.32 -5 63 C-3.35 63.33 -1.7 63.66 0 64 C0 42.88 0 21.76 0 0 Z " fill="#3E2507" transform="translate(250,117)"/>
<path d="M0 0 C6.67611785 0.70398431 12.82251371 2.43576041 19 5 C19 5.66 19 6.32 19 7 C19.66 7.33 20.32 7.66 21 8 C20.01 8.66 19.02 9.32 18 10 C20.07553648 10.5534764 21.84365964 11 24 11 C24 11.66 24 12.32 24 13 C24.94359375 13.16435547 24.94359375 13.16435547 25.90625 13.33203125 C31.56623682 14.38049266 36.6694886 15.82831017 42 18 C36.36465205 19.87844932 31.33443856 17.86873904 26.046875 15.7578125 C23.98401318 14.99408122 21.95185666 14.44418973 19.8125 13.9375 C16 13 16 13 13.375 11.9375 C10.60869786 10.84553863 7.93779433 10.40992479 5 10 C5 9.34 5 8.68 5 8 C4.154375 7.896875 3.30875 7.79375 2.4375 7.6875 C-1.41442701 6.9171146 -4.44075031 5.63725486 -8 4 C-8 3.67 -8 3.34 -8 3 C-6.865625 2.690625 -5.73125 2.38125 -4.5625 2.0625 C-1.21224901 1.37075469 -1.21224901 1.37075469 0 0 Z " fill="#1C1C1C" transform="translate(290,205)"/>
<path d="M0 0 C4.37289479 -0.31996791 7.13834647 0.44029147 11.10229492 2.21362305 C14.11183867 3.46072718 17.22010109 4.20631474 20.375 5 C36.04364682 9.04364682 36.04364682 9.04364682 39 12 C36.8128711 13.32789969 35.52279544 14.04752686 32.9375 13.8125 C31 13 31 13 29.75 11.3125 C28.10460819 9.77239363 28.10460819 9.77239363 26.0703125 10.1796875 C23.9598819 10.6678654 21.99561986 11.15432253 20 12 C19.67 12.66 19.34 13.32 19 14 C19 13.01 19 12.02 19 11 C14.23715959 9.19784417 9.48909077 8.30177038 4.48828125 7.46484375 C2 7 2 7 -1 6 C-0.67 4.02 -0.34 2.04 0 0 Z " fill="#18171C" transform="translate(319,254)"/>
<path d="M0 0 C2.475 0.495 2.475 0.495 5 1 C4.67 2.32 4.34 3.64 4 5 C3.34 4.34 2.68 3.68 2 3 C1.67 58.11 1.34 113.22 1 170 C0.67 170 0.34 170 0 170 C0 113.9 0 57.8 0 0 Z " fill="#79480B" transform="translate(207,172)"/>
<path d="M0 0 C0.33 0 0.66 0 1 0 C2.02322521 6.23797539 2.62812362 10.49526071 -1 16 C-1.639375 17.03125 -2.27875 18.0625 -2.9375 19.125 C-4.79268765 21.71101915 -6.71919508 23.79784353 -9 26 C-9.33 26.66 -9.66 27.32 -10 28 C-10.99 28 -11.98 28 -13 28 C-13 28.66 -13 29.32 -13 30 C-13.66 30 -14.32 30 -15 30 C-15 30.66 -15 31.32 -15 32 C-19.455 32.495 -19.455 32.495 -24 33 C-24 32.34 -24 31.68 -24 31 C-23.34 31 -22.68 31 -22 31 C-22 30.34 -22 29.68 -22 29 C-20.55655551 28.06008266 -19.11088877 27.12334071 -17.65234375 26.20703125 C-15.90898583 24.93351447 -14.71712476 23.62247284 -13.375 21.9375 C-11 19 -11 19 -8.875 17.5625 C-6.11051239 15.25876032 -5.26263338 12.26543115 -4 9 C-3.27888854 7.35062143 -2.54959444 5.70479814 -1.8125 4.0625 C-1.46832031 3.29035156 -1.12414062 2.51820313 -0.76953125 1.72265625 C-0.38861328 0.86994141 -0.38861328 0.86994141 0 0 Z " fill="#131316" transform="translate(473,218)"/>
<path d="M0 0 C2 2 4 4 6 6 C7.03125 6.37125 8.0625 6.7425 9.125 7.125 C14.14539981 9.16256813 17.38286615 13.09978611 21 17 C21.99550569 18.00447421 22.99380823 19.00623035 24 20 C21.69 20 19.38 20 17 20 C17 19.34 17 18.68 17 18 C16.2575 18.2475 15.515 18.495 14.75 18.75 C13.8425 18.8325 12.935 18.915 12 19 C9.875 17.125 9.875 17.125 8 15 C7.01 14.67 6.02 14.34 5 14 C3.31640625 12.328125 3.31640625 12.328125 1.5625 10.25 C0.9540625 9.53328125 0.345625 8.8165625 -0.28125 8.078125 C-2.21515601 5.73985682 -4.13184428 3.39123933 -6 1 C-4.7934375 1.0309375 -4.7934375 1.0309375 -3.5625 1.0625 C-1.06645115 1.29633621 -1.06645115 1.29633621 0 0 Z " fill="#24180A" transform="translate(237,199)"/>
<path d="M0 0 C1.65 0 3.3 0 5 0 C4.83923477 0.68454758 4.67846954 1.36909515 4.51283264 2.0743866 C3.93639306 5.3628656 3.83804124 8.47082488 3.79467773 11.80981445 C3.78477814 12.47378738 3.77487854 13.13776031 3.76467896 13.82185364 C3.73325574 16.00229405 3.70838301 18.18275619 3.68359375 20.36328125 C3.66300762 21.88071742 3.64201073 23.39814807 3.62062073 24.91557312 C3.56557127 28.89884963 3.51608688 32.88217641 3.46777344 36.86553955 C3.41743293 40.93449347 3.36181253 45.00337486 3.30664062 49.07226562 C3.19926869 57.04811567 3.09777767 65.0240266 3 73 C2.01 73.495 2.01 73.495 1 74 C0.67 49.58 0.34 25.16 0 0 Z " fill="#0D0D0F" transform="translate(333,268)"/>
<path d="M0 0 C3.4375 0.1875 3.4375 0.1875 4.4375 1.1875 C7.12612664 1.58743686 9.80102217 1.93884543 12.5 2.25 C13.25861328 2.34087891 14.01722656 2.43175781 14.79882812 2.52539062 C16.6779301 2.7499374 18.55766095 2.96920978 20.4375 3.1875 C20.416875 3.991875 20.39625 4.79625 20.375 5.625 C20.14116379 8.12104885 20.14116379 8.12104885 21.4375 9.1875 C23.11933948 9.42037008 24.8087416 9.60014166 26.5 9.75 C27.41910156 9.83378906 28.33820313 9.91757813 29.28515625 10.00390625 C29.99542969 10.06449219 30.70570313 10.12507812 31.4375 10.1875 C31.4375 10.8475 31.4375 11.5075 31.4375 12.1875 C25.03583313 11.8780861 19.24550895 11.49035949 13.3203125 8.94921875 C11.25880811 8.11520764 9.22454527 7.5778262 7.0625 7.0625 C3.4375 6.1875 3.4375 6.1875 1.4375 5.1875 C1.4375 4.5275 1.4375 3.8675 1.4375 3.1875 C0.65375 3.39375 -0.13 3.6 -0.9375 3.8125 C-1.80375 3.93625 -2.67 4.06 -3.5625 4.1875 C-4.2225 3.5275 -4.8825 2.8675 -5.5625 2.1875 C-3.5625 0.1875 -3.5625 0.1875 0 0 Z " fill="#1E1E1F" transform="translate(312.5625,212.8125)"/>
<path d="M0 0 C0.66 0 1.32 0 2 0 C2 0.66 2 1.32 2 2 C2.66 2 3.32 2 4 2 C4 2.66 4 3.32 4 4 C4.66 4 5.32 4 6 4 C6 4.66 6 5.32 6 6 C6.66 6 7.32 6 8 6 C8.433125 6.7425 8.86625 7.485 9.3125 8.25 C10.84183518 11.10897822 10.84183518 11.10897822 13.4375 12.875 C16.04437183 15.03679615 17.20075955 17.01986263 18.75390625 19.984375 C21.28260639 24.0746862 24.72760314 27.49726453 28 31 C26.625 32.5 26.625 32.5 25 34 C24.34 34 23.68 34 23 34 C23 32.68 23 31.36 23 30 C22.34 30 21.68 30 21 30 C21 29.34 21 28.68 21 28 C20.401875 27.9175 19.80375 27.835 19.1875 27.75 C16.25494852 26.74455378 15.54971552 25.67678136 14 23 C13.31744011 20.67126625 12.64949225 18.33817209 12 16 C9.99739448 13.99739448 8.58207231 13.23646688 6 12.1875 C3.56718588 10.74301662 2.88819246 9.66457737 2 7 C2.33 6.01 2.66 5.02 3 4 C2.34 4 1.68 4 1 4 C0.67 2.68 0.34 1.36 0 0 Z " fill="#39393B" transform="translate(401,300)"/>
<path d="M0 0 C5.32550475 4.99266071 11.67026781 11.01080344 14 18 C15.62776556 19.73199161 17.27855644 21.36535191 19 23 C21.61209398 25.55446909 24.21169865 28.12154192 26.8125 30.6875 C27.50537109 31.36361328 28.19824219 32.03972656 28.91210938 32.73632812 C29.56630859 33.38408203 30.22050781 34.03183594 30.89453125 34.69921875 C31.78942261 35.57839966 31.78942261 35.57839966 32.70239258 36.4753418 C34 38 34 38 34 40 C34.928125 40.185625 34.928125 40.185625 35.875 40.375 C38 41 38 41 40 43 C39.67 43.99 39.34 44.98 39 46 C38.01 45.505 38.01 45.505 37 45 C37 44.34 37 43.68 37 43 C36.01 43 35.02 43 34 43 C32.5 41.50390625 32.5 41.50390625 31 39.5625 C28.62300315 36.49568071 28.62300315 36.49568071 25 35 C25 34.01 25 33.02 25 32 C23.68 31.67 22.36 31.34 21 31 C20.87625 30.360625 20.7525 29.72125 20.625 29.0625 C20.41875 28.381875 20.2125 27.70125 20 27 C19.34 26.67 18.68 26.34 18 26 C18 25.34 18 24.68 18 24 C17.01 24 16.02 24 15 24 C14.731875 23.360625 14.46375 22.72125 14.1875 22.0625 C13.11332248 19.66868314 13.11332248 19.66868314 10 19 C9.29427304 16.95339181 8.9904128 14.94407466 8.625 12.8125 C8.41875 12.214375 8.2125 11.61625 8 11 C7.01 10.67 6.02 10.34 5 10 C5 9.34 5 8.68 5 8 C4.01 8 3.02 8 2 8 C2 6.68 2 5.36 2 4 C1.34 4 0.68 4 0 4 C0 2.68 0 1.36 0 0 Z " fill="#BD7C26" transform="translate(208,173)"/>
<path d="M0 0 C0.99 0.495 0.99 0.495 2 1 C0.68 1.66 -0.64 2.32 -2 3 C-2 3.66 -2 4.32 -2 5 C-8.05443262 6.75586829 -13.4598097 7.29442822 -19.74609375 7.265625 C-20.66700806 7.26835419 -21.58792236 7.27108337 -22.53674316 7.27389526 C-25.50381233 7.27791966 -28.47047224 7.26538328 -31.4375 7.25 C-32.44467072 7.24756287 -33.45184143 7.24512573 -34.48953247 7.24261475 C-75.47757413 7.12576171 -75.47757413 7.12576171 -86 3 C-86 2.67 -86 2.34 -86 2 C-84.7625 1.979375 -83.525 1.95875 -82.25 1.9375 C-81.55390625 1.92589844 -80.8578125 1.91429687 -80.140625 1.90234375 C-78 2 -78 2 -76.1574707 2.48852539 C-73.84219739 3.03741049 -71.71631703 3.19101937 -69.33984375 3.28125 C-68.46392578 3.31863281 -67.58800781 3.35601562 -66.68554688 3.39453125 C-64.84961511 3.46499345 -63.01367758 3.53530532 -61.17773438 3.60546875 C-60.30310547 3.64285156 -59.42847656 3.68023437 -58.52734375 3.71875 C-57.33226196 3.76418945 -57.33226196 3.76418945 -56.11303711 3.81054688 C-54 4 -54 4 -51 5 C-48.28945608 5.10906699 -45.60544374 5.1640445 -42.89453125 5.16796875 C-42.09649582 5.17129715 -41.29846039 5.17462555 -40.47624207 5.17805481 C-38.78584366 5.18311733 -37.09543527 5.18546334 -35.4050293 5.18530273 C-32.83950919 5.18747711 -30.27442772 5.20560609 -27.70898438 5.22460938 C-26.06250146 5.227546 -24.41601652 5.22952899 -22.76953125 5.23046875 C-21.63158867 5.24124702 -21.63158867 5.24124702 -20.47065735 5.25224304 C-14.02848983 5.22510999 -8.45641337 4.22820668 -2.625 1.3125 C-1.75875 0.879375 -0.8925 0.44625 0 0 Z " fill="#979799" transform="translate(418,222)"/>
<path d="M0 0 C0.33 0.99 0.66 1.98 1 3 C1.66 3 2.32 3 3 3 C3.02469321 7.2358357 3.04285671 11.47163342 3.05493164 15.70751953 C3.05996474 17.1489332 3.06679173 18.59034176 3.07543945 20.03173828 C3.08754983 22.10190085 3.09323847 24.17199601 3.09765625 26.2421875 C3.10289307 27.4885498 3.10812988 28.73491211 3.11352539 30.01904297 C3 33 3 33 2 35 C1.84558791 37.10374996 1.75007361 39.21195119 1.68359375 41.3203125 C1.64169922 42.57714844 1.59980469 43.83398438 1.55664062 45.12890625 C1.51732422 46.44761719 1.47800781 47.76632813 1.4375 49.125 C1.39430488 50.46485751 1.35069027 51.80470156 1.30664062 53.14453125 C1.20029019 56.42957815 1.09826192 59.71470281 1 63 C0.67 63 0.34 63 0 63 C0 42.21 0 21.42 0 0 Z " fill="#0E0501" transform="translate(251,118)"/>
<path d="M0 0 C1.9375 0.1875 1.9375 0.1875 4 1 C4.69937532 2.31647119 5.36729133 3.65022151 6 5 C6.99 5.33 7.98 5.66 9 6 C8.34 7.32 7.68 8.64 7 10 C7.66 10 8.32 10 9 10 C9 10.66 9 11.32 9 12 C9.99 12.33 10.98 12.66 12 13 C12 13.66 12 14.32 12 15 C12.969375 15.2475 13.93875 15.495 14.9375 15.75 C15.948125 16.1625 16.95875 16.575 18 17 C18.875 19.125 18.875 19.125 19 21 C19.99 21 20.98 21 22 21 C22 21.66 22 22.32 22 23 C22.66 23 23.32 23 24 23 C24.625 25.375 24.625 25.375 25 28 C24.34 28.66 23.68 29.32 23 30 C12.51260504 19.71428571 12.51260504 19.71428571 10 16 C10 15.01 10 14.02 10 13 C9.34 13 8.68 13 8 13 C8 12.34 8 11.68 8 11 C7.39671875 10.75507813 6.7934375 10.51015625 6.171875 10.2578125 C3.61035221 8.77434067 2.72499008 7.41526069 1.25 4.875 C0.60804688 3.78832031 0.60804688 3.78832031 -0.046875 2.6796875 C-0.36140625 2.12539063 -0.6759375 1.57109375 -1 1 C-0.67 0.67 -0.34 0.34 0 0 Z " fill="#202021" transform="translate(455,297)"/>
<path d="M0 0 C10.19665242 -0.06957067 20.39324819 -0.1228472 30.5900898 -0.15543652 C35.32511923 -0.17107932 40.05998603 -0.1922923 44.79492188 -0.22631836 C49.36608347 -0.25896121 53.93708883 -0.27686344 58.508358 -0.28463173 C60.25064426 -0.29016639 61.99292217 -0.3009743 63.73514175 -0.31719017 C66.17924599 -0.33903013 68.6227081 -0.34196422 71.06689453 -0.34057617 C71.78403122 -0.351362 72.50116791 -0.36214783 73.24003601 -0.3732605 C77.92347019 -0.34456002 80.95724163 0.70120658 85 3 C87.10800633 3.62316976 89.23431377 4.18800655 91.375 4.6875 C92.43460937 4.93886719 93.49421875 5.19023438 94.5859375 5.44921875 C95.38257813 5.63097656 96.17921875 5.81273438 97 6 C96.67 6.66 96.34 7.32 96 8 C95.03320312 7.73445313 94.06640625 7.46890625 93.0703125 7.1953125 C91.75525535 6.83836842 90.44014845 6.48160756 89.125 6.125 C88.49335938 5.95097656 87.86171875 5.77695313 87.2109375 5.59765625 C85.14626507 5.04019469 83.07488566 4.51816389 81 4 C80.33242676 3.82593628 79.66485352 3.65187256 78.97705078 3.47253418 C70.87192744 1.59031659 62.76163905 1.64847739 54.4921875 1.5859375 C52.91463241 1.56719284 51.337087 1.54761707 49.759552 1.5272522 C45.63991036 1.47627282 41.52023634 1.43646587 37.40045166 1.39910889 C33.18355525 1.35885285 28.96678956 1.3078599 24.75 1.2578125 C16.50008983 1.161459 8.2501141 1.0769266 0 1 C0 0.67 0 0.34 0 0 Z " fill="#5C5C5C" transform="translate(337,116)"/>
<path d="M0 0 C0.99 0 1.98 0 3 0 C3 0.66 3 1.32 3 2 C4.03060547 1.96519531 4.03060547 1.96519531 5.08203125 1.9296875 C6.43361328 1.90261719 6.43361328 1.90261719 7.8125 1.875 C8.70582031 1.85179688 9.59914063 1.82859375 10.51953125 1.8046875 C13 2 13 2 16 4 C16 4.99 16 5.98 16 7 C16.57234375 7.09023437 17.1446875 7.18046875 17.734375 7.2734375 C22.17048261 8.69605132 25.27855688 12.33253142 28 16 C28.66402488 18.68628248 28.46306138 20.22163173 28 23 C25.55818977 21.4001933 24.1271436 20.23054352 22.703125 17.6484375 C20.69768866 14.52989201 18.58902807 12.93558685 15.5625 10.8125 C14.61503906 10.13832031 13.66757812 9.46414062 12.69140625 8.76953125 C10.49795709 7.32739414 8.37859399 6.09651496 6 5 C6 4.34 6 3.68 6 3 C4.68 3 3.36 3 2 3 C2 2.34 2 1.68 2 1 C1.34 0.67 0.68 0.34 0 0 Z " fill="#343434" transform="translate(435,124)"/>
<path d="M0 0 C0.66 0 1.32 0 2 0 C2 0.66 2 1.32 2 2 C1.34 2 0.68 2 0 2 C0 1.34 0 0.68 0 0 Z M4 3 C0.05915296 7.86810517 -6.05199715 9.2454288 -12 10 C-14.89449384 10.12418635 -17.78298192 10.11686418 -20.6796875 10.09765625 C-21.49245148 10.0962413 -22.30521545 10.09482635 -23.14260864 10.09336853 C-25.72011101 10.08780335 -28.2975242 10.0752574 -30.875 10.0625 C-32.63020707 10.0574805 -34.38541552 10.05291838 -36.140625 10.04882812 C-40.42711732 10.03784534 -44.71354357 10.02060492 -49 10 C-49 9.67 -49 9.34 -49 9 C-38.11 8.67 -27.22 8.34 -16 8 C-15.67 7.34 -15.34 6.68 -15 6 C-13.35 6 -11.7 6 -10 6 C-10 5.34 -10 4.68 -10 4 C-4.38372217 1.01993421 -1.93642189 0.69812213 4 3 Z " fill="#252527" transform="translate(416,218)"/>
<path d="M0 0 C5.4556837 2.12405077 10.81634671 4.27176143 16 7 C16 7.66 16 8.32 16 9 C17.32 9.33 18.64 9.66 20 10 C19.34 10 18.68 10 18 10 C18 11.65 18 13.3 18 15 C12.25 14.125 12.25 14.125 10 13 C10 12.34 10 11.68 10 11 C7.36 10.34 4.72 9.68 2 9 C2.66 8.34 3.32 7.68 4 7 C3.34 6.34 2.68 5.68 2 5 C2 4.01 2 3.02 2 2 C1.34 2 0.68 2 0 2 C0 1.34 0 0.68 0 0 Z " fill="#1F1E23" transform="translate(287,237)"/>
<path d="M0 0 C5.64687055 8.47030582 5.41837409 17.97814254 5.28125 27.79858398 C5.24963154 30.08919284 5.24022325 32.37911474 5.234375 34.66992188 C5.16413107 45.83586893 5.16413107 45.83586893 4 47 C3.63239269 49.32817964 3.29758419 51.6618385 3 54 C2.34 54 1.68 54 1 54 C0.67 54.66 0.34 55.32 0 56 C-0.19986071 50.60376094 0.28154805 45.85770089 1.46484375 40.58984375 C2.73544198 34.44089028 3.23561094 28.31626281 3.5625 22.0625 C3.60568359 21.28326172 3.64886719 20.50402344 3.69335938 19.70117188 C3.79828077 17.80092883 3.8995245 15.90048331 4 14 C3.34 14 2.68 14 2 14 C2 12.02 2 10.04 2 8 C1.34 8 0.68 8 0 8 C0 5.36 0 2.72 0 0 Z " fill="#AAAAAA" transform="translate(472,164)"/>
<path d="M0 0 C0.33 0 0.66 0 1 0 C1.01981934 0.71655762 1.03963867 1.43311523 1.06005859 2.17138672 C1.15509519 5.4063063 1.26486019 8.64056094 1.375 11.875 C1.4059375 13.00292969 1.436875 14.13085938 1.46875 15.29296875 C1.52675781 16.90751953 1.52675781 16.90751953 1.5859375 18.5546875 C1.6173584 19.54968262 1.6487793 20.54467773 1.68115234 21.56982422 C1.77247083 24.17854517 1.77247083 24.17854517 4 26 C4 26.99 4 27.98 4 29 C4.66 29 5.32 29 6 29 C7.5078125 30.75 7.5078125 30.75 9.125 33 C9.66382813 33.7425 10.20265625 34.485 10.7578125 35.25 C11.37269531 36.11625 11.37269531 36.11625 12 37 C9.69 36.67 7.38 36.34 5 36 C5.99 36.33 6.98 36.66 8 37 C7.34 38.32 6.68 39.64 6 41 C4.68 39.68 3.36 38.36 2 37 C2 38.98 2 40.96 2 43 C1.34 43 0.68 43 0 43 C0 40.03 0 37.06 0 34 C0.66 34 1.32 34 2 34 C2.495 31.03 2.495 31.03 3 28 C2.01 27.67 1.02 27.34 0 27 C0 18.09 0 9.18 0 0 Z " fill="#4B371C" transform="translate(207,117)"/>
<path d="M0 0 C3.3 0.99 6.6 1.98 10 3 C10 3.66 10 4.32 10 5 C10.66 5.33 11.32 5.66 12 6 C11.01 6.66 10.02 7.32 9 8 C11.07553648 8.5534764 12.84365964 9 15 9 C15 9.66 15 10.32 15 11 C15.6290625 11.10957031 16.258125 11.21914062 16.90625 11.33203125 C22.56623682 12.38049266 27.6694886 13.82831017 33 16 C27.36465205 17.87844932 22.33443856 15.86873904 17.046875 13.7578125 C14.98401318 12.99408122 12.95185666 12.44418973 10.8125 11.9375 C7 11 7 11 4.375 9.9375 C1.60869786 8.84553863 -1.06220567 8.40992479 -4 8 C-4 7.34 -4 6.68 -4 6 C-3.06027344 6.01740234 -3.06027344 6.01740234 -2.1015625 6.03515625 C-0.87566406 6.04869141 -0.87566406 6.04869141 0.375 6.0625 C1.59316406 6.07990234 1.59316406 6.07990234 2.8359375 6.09765625 C5.04937142 6.14466334 5.04937142 6.14466334 7 5 C3.535 3.02 3.535 3.02 0 1 C0 0.67 0 0.34 0 0 Z " fill="#4D4D4D" transform="translate(299,207)"/>
<path d="M0 0 C0.33 0 0.66 0 1 0 C1 19.47 1 38.94 1 59 C-15.875 57.875 -15.875 57.875 -22 55 C-22 54.67 -22 54.34 -22 54 C-16.24474862 53.68026381 -11.76871125 54.44247894 -6.296875 56.24609375 C-4.22668146 56.92559605 -2.1138033 57.47154918 0 58 C0 38.86 0 19.72 0 0 Z " fill="#CECECE" transform="translate(331,157)"/>
<path d="M0 0 C24.09 0 48.18 0 73 0 C73 0.33 73 0.66 73 1 C49.57 1 26.14 1 2 1 C2 1.66 2 2.32 2 3 C2.99 3.33 3.98 3.66 5 4 C3.68 5.65 2.36 7.3 1 9 C0.67 8.67 0.34 8.34 0 8 C0 5.36 0 2.72 0 0 Z " fill="#090909" transform="translate(333,159)"/>
<path d="M0 0 C6.83503191 3.28081532 12.38397641 6.95597881 18 12 C21.74841554 15.33608983 25.3970356 17.91770658 30 20 C30 20.66 30 21.32 30 22 C30.598125 22.103125 31.19625 22.20625 31.8125 22.3125 C34.28243264 23.08876455 35.32251235 24.07088921 37 26 C34 26 34 26 32 25 C32 24.34 32 23.68 32 23 C31.15308594 22.83177734 31.15308594 22.83177734 30.2890625 22.66015625 C19.00529271 19.40596326 8.29268338 8.99155242 0 1 C0 0.67 0 0.34 0 0 Z " fill="#A2A2A5" transform="translate(253,211)"/>
<path d="M0 0 C4.6875 -0.203125 4.6875 -0.203125 7.5 1.625 C10.31394698 4.29824963 12.67941268 6.88378274 15 10 C15 10.99 15 11.98 15 13 C15.99 13.33 16.98 13.66 18 14 C17.01 15.32 16.02 16.64 15 18 C12.5 15.6875 12.5 15.6875 10 13 C10 12.01 10 11.02 10 10 C9.34 10 8.68 10 8 10 C8 9.34 8 8.68 8 8 C7.34 8 6.68 8 6 8 C4.4921875 6.25 4.4921875 6.25 2.875 4 C2.33617187 3.2575 1.79734375 2.515 1.2421875 1.75 C0.62730469 0.88375 0.62730469 0.88375 0 0 Z " fill="#201F24" transform="translate(430,272)"/>
<path d="M0 0 C1.25556424 3.90619985 0.81588958 6.36822084 -1 10 C-1.99 10 -2.98 10 -4 10 C-4 10.66 -4 11.32 -4 12 C-4.66 12 -5.32 12 -6 12 C-6 12.66 -6 13.32 -6 14 C-10.455 14.495 -10.455 14.495 -15 15 C-15 14.34 -15 13.68 -15 13 C-14.34 13 -13.68 13 -13 13 C-13 12.34 -13 11.68 -13 11 C-11.55957094 10.06204619 -10.11680649 9.12740241 -8.66015625 8.21484375 C-5.93626707 6.22159778 -4.10148613 3.62685766 -2 1 C-1.34 0.67 -0.68 0.34 0 0 Z " fill="#1E1D22" transform="translate(464,236)"/>
<path d="M0 0 C2.25245881 2.68841859 3.88213958 4.64641875 5 8 C5.66 8 6.32 8 7 8 C7.268125 8.804375 7.53625 9.60875 7.8125 10.4375 C8.204375 11.283125 8.59625 12.12875 9 13 C9.99 13.33 10.98 13.66 12 14 C15.84057948 16.61159404 16.08716804 20.71671156 17 25 C12.43109553 21.38081163 9.09976935 17.99962799 6 13 C4.40650647 10.99528233 2.80297003 9.00161472 1.171875 7.02734375 C-0.26969019 4.53343597 -0.21613189 2.83427502 0 0 Z " fill="#2A1602" transform="translate(212,173)"/>
<path d="M0 0 C1.4835001 0.42257276 2.96176424 0.86356322 4.4375 1.3125 C5.67306641 1.67794922 5.67306641 1.67794922 6.93359375 2.05078125 C7.95646484 2.52064453 7.95646484 2.52064453 9 3 C9.33 3.99 9.66 4.98 10 6 C9.34 6 8.68 6 8 6 C8 5.34 8 4.68 8 4 C7.01 4.495 7.01 4.495 6 5 C6.495 5.78375 6.99 6.5675 7.5 7.375 C9 10 9 10 9 12 C10.32 12 11.64 12 13 12 C13.33 14.31 13.66 16.62 14 19 C9.49655775 15.34014204 5.39471482 11.73202672 2 7 C2 5.68 2 4.36 2 3 C1.01 2.67 0.02 2.34 -1 2 C-0.67 1.34 -0.34 0.68 0 0 Z " fill="#20211D" transform="translate(212,152)"/>
<path d="M0 0 C2.5 1.75 2.5 1.75 5 4 C5 5.32 5 6.64 5 8 C-12.16 8 -29.32 8 -47 8 C-47.33 7.34 -47.66 6.68 -48 6 C-31.17 6.33 -14.34 6.66 3 7 C3 6.01 3 5.02 3 4 C2.01 4 1.02 4 0 4 C0 2.68 0 1.36 0 0 Z " fill="#A3A3A5" transform="translate(484,334)"/>
<path d="M0 0 C2.82985021 5.65970042 3.21408591 9.41116284 3.25 15.75 C3.2809375 17.09191406 3.2809375 17.09191406 3.3125 18.4609375 C3.34378893 23.76441052 2.90874966 27.37661897 0 32 C-1.53445094 28.93109813 -0.54984289 26.29905734 0 23 C0.66 23 1.32 23 2 23 C1.67 21.68 1.34 20.36 1 19 C0.34 19.33 -0.32 19.66 -1 20 C-1.10152799 13.2314676 -1.03026944 6.69675136 0 0 Z " fill="#272727" transform="translate(431,178)"/>
<path d="M0 0 C5.23175837 -0.38281159 8.37802694 0.78145293 13 3 C12.34 4.32 11.68 5.64 11 7 C2.42857143 6 2.42857143 6 -1 5 C-0.67 3.35 -0.34 1.7 0 0 Z " fill="#1E1D22" transform="translate(319,254)"/>
<path d="M0 0 C0 0.99 0 1.98 0 3 C-0.639375 3.12375 -1.27875 3.2475 -1.9375 3.375 C-2.618125 3.58125 -3.29875 3.7875 -4 4 C-4.33 4.66 -4.66 5.32 -5 6 C-5.99 6 -6.98 6 -8 6 C-8.33 8.97 -8.66 11.94 -9 15 C-11.33333333 12.66666667 -13.66666667 10.33333333 -16 8 C-16 7.01 -16 6.02 -16 5 C-14.5459375 4.5978125 -14.5459375 4.5978125 -13.0625 4.1875 C-8.66073104 2.93371745 -4.33223494 1.4735493 0 0 Z " fill="#232227" transform="translate(439,257)"/>
<path d="M0 0 C5.04395895 3.51548654 8.37975847 8.11736877 12 13 C11.01 13.66 10.02 14.32 9 15 C8.34 14.34 7.68 13.68 7 13 C5.19364754 11.50235443 3.37936426 10.01524205 1.55859375 8.53515625 C0 7 0 7 -1 4 C-0.5625 1.8125 -0.5625 1.8125 0 0 Z " fill="#2B2A2F" transform="translate(376,271)"/>
<path d="M0 0 C4.13937592 3.30015998 7.58662205 6.17324411 10 11 C9.01 11 8.02 11 7 11 C6.67 11.99 6.34 12.98 6 14 C6.66 14 7.32 14 8 14 C8 14.99 8 15.98 8 17 C7.34 17 6.68 17 6 17 C5.65066406 16.28972656 5.30132812 15.57945312 4.94140625 14.84765625 C4.48636719 13.92855469 4.03132812 13.00945312 3.5625 12.0625 C3.11003906 11.14597656 2.65757812 10.22945312 2.19140625 9.28515625 C1.19474606 7.09471096 1.19474606 7.09471096 0 6 C-0.04080783 4.00041636 -0.04254356 1.99954746 0 0 Z " fill="#C3C3BF" transform="translate(208,153)"/>
<path d="M0 0 C0.33 0 0.66 0 1 0 C2.70062937 9.09701742 2.11431633 18.30042939 1.625 27.5 C1.55539062 28.8096875 1.48578125 30.119375 1.4140625 31.46875 C1.03509429 34.70070526 0.3824152 37.07782154 -1 40 C-1.33 40 -1.66 40 -2 40 C-2.04241723 37.66705225 -2.04092937 35.33297433 -2 33 C-1.505 32.505 -1.505 32.505 -1 32 C-0.84028023 29.62661361 -0.7407567 27.27881728 -0.68359375 24.90234375 C-0.66281265 24.19348526 -0.64203156 23.48462677 -0.62062073 22.75428772 C-0.55505402 20.48212695 -0.4962077 18.20984736 -0.4375 15.9375 C-0.39432151 14.40037817 -0.35070745 12.8632685 -0.30664062 11.32617188 C-0.19936551 7.5509041 -0.09811863 3.7755164 0 0 Z " fill="#434343" transform="translate(477,178)"/>
<path d="M0 0 C3.96 0 7.92 0 12 0 C12 0.99 12 1.98 12 3 C14.31 3.33 16.62 3.66 19 4 C16.02129623 4.99290126 14.40817115 5.05524548 11.33203125 4.87890625 C9.99301758 4.80639648 9.99301758 4.80639648 8.62695312 4.73242188 C7.69818359 4.67634766 6.76941406 4.62027344 5.8125 4.5625 C4.87212891 4.51029297 3.93175781 4.45808594 2.96289062 4.40429688 C0.64158499 4.27468082 -1.67928409 4.13971819 -4 4 C-2.68 3.34 -1.36 2.68 0 2 C0 1.34 0 0.68 0 0 Z " fill="#19191B" transform="translate(348,222)"/>
<path d="M0 0 C1.16406323 1.16406323 2.32754865 2.32870939 3.48828125 3.49609375 C4.53794602 4.5403339 5.59871848 5.57347976 6.66796875 6.59765625 C8.14814809 8.02861348 9.57767678 9.51152221 11 11 C11 11.66 11 12.32 11 13 C11.66 13 12.32 13 13 13 C13 13.66 13 14.32 13 15 C12.01 15 11.02 15 10 15 C8.96210419 13.35666496 7.96432076 11.68756133 7 10 C6.01 9.34 5.02 8.68 4 8 C4 8.66 4 9.32 4 10 C3.34 10 2.68 10 2 10 C-3 4.52380952 -3 4.52380952 -3 2 C-2.34 2 -1.68 2 -1 2 C-0.67 1.34 -0.34 0.68 0 0 Z " fill="#343338" transform="translate(388,285)"/>
<path d="M0 0 C1.2375 -0.020625 2.475 -0.04125 3.75 -0.0625 C4.44609375 -0.07410156 5.1421875 -0.08570313 5.859375 -0.09765625 C8 0 8 0 9.8425293 0.49072266 C12.16310691 1.03850187 14.278273 1.1746589 16.66015625 1.24609375 C17.9740332 1.29540039 17.9740332 1.29540039 19.31445312 1.34570312 C21.15026036 1.40702718 22.9862072 1.46430254 24.82226562 1.51757812 C26.13420898 1.56881836 26.13420898 1.56881836 27.47265625 1.62109375 C28.26937744 1.6461499 29.06609863 1.67120605 29.88696289 1.69702148 C32 2 32 2 35 4 C8.99583767 4.32778356 8.99583767 4.32778356 0 1 C0 0.67 0 0.34 0 0 Z " fill="#6D6D6F" transform="translate(332,224)"/>
<path d="M0 0 C0.66 0 1.32 0 2 0 C2.77955182 2.72843136 3.07379321 4.64025809 2.5 7.4375 C0.35432614 11.10302618 -2.67648003 13.41405265 -6 16 C-6.40343954 13.33729903 -6.35080071 11.56941565 -4.921875 9.25 C-4.03344225 8.06542301 -3.12383743 6.89635785 -2.19140625 5.74609375 C-0.89016489 3.83902854 -0.42890373 2.25297707 0 0 Z " fill="#1C1C1C" transform="translate(428,203)"/>
<path d="M0 0 C1.60407328 -0.02708567 3.2082785 -0.04643483 4.8125 -0.0625 C5.70582031 -0.07410156 6.59914063 -0.08570313 7.51953125 -0.09765625 C10 0 10 0 13 1 C13.33 2.65 13.66 4.3 14 6 C14.99 6.33 15.98 6.66 17 7 C17 7.66 17 8.32 17 9 C15.68428397 8.7452486 14.37239624 8.47065859 13.0625 8.1875 C11.96615234 7.96126953 11.96615234 7.96126953 10.84765625 7.73046875 C10.23792969 7.48941406 9.62820313 7.24835938 9 7 C8.67 6.01 8.34 5.02 8 4 C6.12612784 3.19787372 6.12612784 3.19787372 3.9375 2.8125 C3.20402344 2.65394531 2.47054688 2.49539062 1.71484375 2.33203125 C1.14894531 2.22246094 0.58304687 2.11289063 0 2 C0 1.34 0 0.68 0 0 Z " fill="#212322" transform="translate(265,199)"/>
<path d="M0 0 C2.35171131 0.59861742 4.6859378 1.26924352 7 2 C7.33 2.66 7.66 3.32 8 4 C10.52733235 4.65555119 10.52733235 4.65555119 13 5 C13 6.65 13 8.3 13 10 C14.32 10 15.64 10 17 10 C17.66 11.65 18.32 13.3 19 15 C16.48103951 13.880462 14.60265345 12.68018448 12.4375 10.9375 C10.07973981 8.83615651 10.07973981 8.83615651 7 8 C5.66666667 6.33333333 4.33333333 4.66666667 3 3 C2.01 2.67 1.02 2.34 0 2 C0 1.34 0 0.68 0 0 Z " fill="#4F4F49" transform="translate(226,172)"/>
<path d="M0 0 C0.33 0 0.66 0 1 0 C1 6.93 1 13.86 1 21 C1.66 21 2.32 21 3 21 C3.33 22.65 3.66 24.3 4 26 C5.32 26 6.64 26 8 26 C8.33 27.65 8.66 29.3 9 31 C8.01 31 7.02 31 6 31 C5.67 30.01 5.34 29.02 5 28 C4.34 28 3.68 28 3 28 C0.34111569 24.43367698 -0.36680536 21.88605315 -0.29296875 17.48046875 C-0.28330078 16.45888672 -0.27363281 15.43730469 -0.26367188 14.38476562 C-0.23853516 13.32966797 -0.21339844 12.27457031 -0.1875 11.1875 C-0.17396484 10.11306641 -0.16042969 9.03863281 -0.14648438 7.93164062 C-0.11122577 5.28724545 -0.06194366 2.64388252 0 0 Z " fill="#D68834" transform="translate(208,118)"/>
<path d="M0 0 C1.1055189 0.93590504 2.20935453 1.87379858 3.3125 2.8125 C3.92738281 3.33457031 4.54226563 3.85664063 5.17578125 4.39453125 C5.77777344 4.92433594 6.37976563 5.45414063 7 6 C7.5671875 6.4846875 8.134375 6.969375 8.71875 7.46875 C10.86089345 10.02887266 10.18038847 12.81313697 10 16 C6.57961833 13.75906029 4.98005585 11.54760006 3 8 C1.67541292 5.99419671 0.3440093 3.99284138 -1 2 C-0.67 1.34 -0.34 0.68 0 0 Z " fill="#181818" transform="translate(453,131)"/>
<path d="M0 0 C0.66 0 1.32 0 2 0 C2 0.66 2 1.32 2 2 C2.66 2 3.32 2 4 2 C4 2.66 4 3.32 4 4 C4.66 4 5.32 4 6 4 C6 4.66 6 5.32 6 6 C6.66 6 7.32 6 8 6 C9.6875 8.3125 9.6875 8.3125 11 11 C10.67 11.99 10.34 12.98 10 14 C9.34 13.67 8.68 13.34 8 13 C7.34 12.731875 6.68 12.46375 6 12.1875 C3.56718588 10.74301662 2.88819246 9.66457737 2 7 C2.33 6.01 2.66 5.02 3 4 C2.34 4 1.68 4 1 4 C0.67 2.68 0.34 1.36 0 0 Z " fill="#48484B" transform="translate(401,300)"/>
<path d="M0 0 C2.03125 0.26953125 2.03125 0.26953125 4.5 0.8125 C5.3146875 0.98394531 6.129375 1.15539062 6.96875 1.33203125 C7.97421875 1.66267578 7.97421875 1.66267578 9 2 C9.33 2.66 9.66 3.32 10 4 C7.36 3.34 4.72 2.68 2 2 C1.67 3.32 1.34 4.64 1 6 C1.66 6 2.32 6 3 6 C3.33 5.34 3.66 4.68 4 4 C4.66 4.66 5.32 5.32 6 6 C5.67 6.66 5.34 7.32 5 8 C0.15340923 7.40895235 -3.60748167 6.02055843 -8 4 C-8 3.67 -8 3.34 -8 3 C-6.865625 2.690625 -5.73125 2.38125 -4.5625 2.0625 C-1.21224901 1.37075469 -1.21224901 1.37075469 0 0 Z " fill="#373737" transform="translate(290,205)"/>
<path d="M0 0 C-2.94839414 4.42259121 -7.02806375 5.47192785 -12 7 C-15.625 7.25 -15.625 7.25 -18 7 C-18.33 7.66 -18.66 8.32 -19 9 C-19 7.68 -19 6.36 -19 5 C-16.36 4.67 -13.72 4.34 -11 4 C-11 3.34 -11 2.68 -11 2 C-7.17010894 0.19769832 -4.21878192 -0.19622241 0 0 Z " fill="#8F8E93" transform="translate(441,255)"/>
<path d="M0 0 C2.91227269 3.28804981 4.49701212 5.59885603 5 10 C5.99 10.33 6.98 10.66 8 11 C8 11.99 8 12.98 8 14 C8.66 14 9.32 14 10 14 C10.66 15.32 11.32 16.64 12 18 C10.35 18 8.7 18 7 18 C6.67 16.02 6.34 14.04 6 12 C5.01 12 4.02 12 3 12 C3 11.34 3 10.68 3 10 C1.68 9.34 0.36 8.68 -1 8 C-0.01 8 0.98 8 2 8 C2 7.01 2 6.02 2 5 C1.01 5.33 0.02 5.66 -1 6 C-0.67 4.02 -0.34 2.04 0 0 Z " fill="#2B2B28" transform="translate(209,160)"/>
<path d="M0 0 C0.66 0 1.32 0 2 0 C4.51899591 5.03799182 3.40187844 12.49295583 2 17.75 C1.67 18.4925 1.34 19.235 1 20 C0.67 20 0.34 20 0 20 C0 13.4 0 6.8 0 0 Z " fill="#D0D0D0" transform="translate(434,184)"/>
<path d="M0 0 C4.95 0 9.9 0 15 0 C14.67 0.99 14.34 1.98 14 3 C12.02 3 10.04 3 8 3 C7.67 3.66 7.34 4.32 7 5 C4.69 4.34 2.38 3.68 0 3 C0 2.01 0 1.02 0 0 Z " fill="#08080A" transform="translate(360,222)"/>
<path d="M0 0 C2.97 0.99 5.94 1.98 9 3 C9 3.33 9 3.66 9 4 C7.35 4 5.7 4 4 4 C3.67 5.65 3.34 7.3 3 9 C1.37276701 8.54965877 -0.25173664 8.08944646 -1.875 7.625 C-2.77992188 7.36976563 -3.68484375 7.11453125 -4.6171875 6.8515625 C-7 6 -7 6 -9 4 C-5.04 4 -1.08 4 3 4 C3 3.34 3 2.68 3 2 C2.01 2 1.02 2 0 2 C0 1.34 0 0.68 0 0 Z " fill="#535257" transform="translate(315,250)"/>
<path d="M0 0 C6.15017373 -0.32947359 10.39708929 0.52714478 16 3 C17.01900391 3.42925781 17.01900391 3.42925781 18.05859375 3.8671875 C19.71114321 4.56544783 21.35640067 5.28092529 23 6 C23 6.33 23 6.66 23 7 C17.60607261 6.38334864 12.71604717 5.12077204 7.5625 3.4375 C6.83095703 3.20353516 6.09941406 2.96957031 5.34570312 2.72851562 C3.56219821 2.15732778 1.78086417 1.57936877 0 1 C0 0.67 0 0.34 0 0 Z " fill="#A8A7AC" transform="translate(340,259)"/>
<path d="M0 0 C3.80635497 3.20760251 7.54563567 6.40746109 11 10 C8.69 10 6.38 10 4 10 C4 9.34 4 8.68 4 8 C3.34 8 2.68 8 2 8 C0.3125 6.25 0.3125 6.25 -1 4 C-0.58203125 1.859375 -0.58203125 1.859375 0 0 Z " fill="#2C2C28" transform="translate(250,209)"/>
<path d="M0 0 C0.33 0 0.66 0 1 0 C1.1567564 7.71589817 0.67453101 15.31516461 0 23 C-0.66 23 -1.32 23 -2 23 C-2.33 23.66 -2.66 24.32 -3 25 C-3.20230702 19.53771041 -2.67467473 14.74655711 -1.51171875 9.41015625 C-0.84853636 6.2866178 -0.41286183 3.16527403 0 0 Z " fill="#E8E8E8" transform="translate(475,195)"/>
<path d="M0 0 C1.45922693 0.11409593 2.91740598 0.24165544 4.375 0.375 C5.59316406 0.47941406 5.59316406 0.47941406 6.8359375 0.5859375 C9 1 9 1 11 3 C9.906875 2.979375 8.81375 2.95875 7.6875 2.9375 C4.05615809 2.81455548 4.05615809 2.81455548 1 4 C-4.24689773 4.25804415 -8.05295901 3.97881639 -13 2 C-8.91556885 0.46833832 -5.20544343 1.36918348 -1 2 C-0.67 1.34 -0.34 0.68 0 0 Z " fill="#3E3D42" transform="translate(331,258)"/>
<path d="M0 0 C0.33 0 0.66 0 1 0 C1 1.65 1 3.3 1 5 C0.34 5 -0.32 5 -1 5 C-1 5.66 -1 6.32 -1 7 C-2.98 7.66 -4.96 8.32 -7 9 C-7 8.01 -7 7.02 -7 6 C-7.66 5.67 -8.32 5.34 -9 5 C-8.43410156 4.72285156 -7.86820312 4.44570312 -7.28515625 4.16015625 C-6.55167969 3.79792969 -5.81820313 3.43570313 -5.0625 3.0625 C-3.96615234 2.52302734 -3.96615234 2.52302734 -2.84765625 1.97265625 C-1.03750973 1.13628173 -1.03750973 1.13628173 0 0 Z " fill="#1B1A1F" transform="translate(449,251)"/>
<path d="M0 0 C1.32 0.66 2.64 1.32 4 2 C4 2.66 4 3.32 4 4 C4.66 4 5.32 4 6 4 C6.625 5.875 6.625 5.875 7 8 C6.34 8.66 5.68 9.32 5 10 C2.69 7.69 0.38 5.38 -2 3 C-1.34 2.67 -0.68 2.34 0 2 C0 1.34 0 0.68 0 0 Z " fill="#1C1B20" transform="translate(448,288)"/>
<path d="M0 0 C6.14917568 2.95160432 11.04380976 5.30308605 15 11 C10.30761228 10.52653385 8.08375277 8.67989889 4.6875 5.5 C3.80449219 4.6853125 2.92148438 3.870625 2.01171875 3.03125 C0 1 0 1 0 0 Z " fill="#BCBDBD" transform="translate(253,211)"/>
<path d="M0 0 C3.5625 0.375 3.5625 0.375 5.5 2.375 C5.850625 3.035 6.20125 3.695 6.5625 4.375 C4.9125 4.705 3.2625 5.035 1.5625 5.375 C1.5625 4.715 1.5625 4.055 1.5625 3.375 C0.77875 3.58125 -0.005 3.7875 -0.8125 4 C-1.67875 4.12375 -2.545 4.2475 -3.4375 4.375 C-4.0975 3.715 -4.7575 3.055 -5.4375 2.375 C-3.4375 0.375 -3.4375 0.375 0 0 Z " fill="#161616" transform="translate(312.4375,212.625)"/>
<path d="M0 0 C1.9375 0.1875 1.9375 0.1875 4 1 C4.69937532 2.31647119 5.36729133 3.65022151 6 5 C6.99 5.33 7.98 5.66 9 6 C8.34 6.66 7.68 7.32 7 8 C4.5625 8 4.5625 8 2 7 C0.1875 3.9375 0.1875 3.9375 -1 1 C-0.67 0.67 -0.34 0.34 0 0 Z " fill="#0C0B10" transform="translate(455,297)"/>
<path d="M0 0 C4.9722401 -0.48118453 9.47431436 1.06169063 14 3 C14.66 3.66 15.32 4.32 16 5 C13.8128711 6.32789969 12.52279544 7.04752686 9.9375 6.8125 C7.71799612 5.88174031 6.69103173 4.69103173 5 3 C2.40084462 1.80972016 2.40084462 1.80972016 0 1 C0 0.67 0 0.34 0 0 Z " fill="#2A292E" transform="translate(342,261)"/>
<path d="M0 0 C0 2.83967231 -0.40267181 5.23735711 -1 8 C-2.65 8.33 -4.3 8.66 -6 9 C-6 9.66 -6 10.32 -6 11 C-9.465 12.485 -9.465 12.485 -13 14 C-13 13.34 -13 12.68 -13 12 C-12.34 12 -11.68 12 -11 12 C-11 11.34 -11 10.68 -11 10 C-9.56199685 9.06362586 -8.12177263 8.13039899 -6.66796875 7.21875 C-3.92257327 5.21274675 -2.07151827 2.68078835 0 0 Z " fill="#818085" transform="translate(462,237)"/>
<path d="M0 0 C0.598125 0.165 1.19625 0.33 1.8125 0.5 C4.11344336 1.1114124 4.11344336 1.1114124 7 1 C8.35917857 1.96457834 9.69084721 2.96854629 11 4 C12.31836295 4.69580267 13.64791086 5.37224433 15 6 C14.67 6.99 14.34 7.98 14 9 C13.67 8.01 13.34 7.02 13 6 C12.32453125 5.87882813 11.6490625 5.75765625 10.953125 5.6328125 C9.61507812 5.38144531 9.61507812 5.38144531 8.25 5.125 C7.36828125 4.96257812 6.4865625 4.80015625 5.578125 4.6328125 C3.13052256 4.03203736 1.19400143 3.22002883 -1 2 C-0.67 1.34 -0.34 0.68 0 0 Z " fill="#301E05" transform="translate(231,172)"/>
<path d="M0 0 C2.62187494 1.04874998 3.79371361 1.64931313 5.25 4.125 C5.4975 4.74375 5.745 5.3625 6 6 C6.66 6 7.32 6 8 6 C8 6.66 8 7.32 8 8 C7.34 8 6.68 8 6 8 C5.67 8.66 5.34 9.32 5 10 C2.69 7.36 0.38 4.72 -2 2 C-1.34 1.34 -0.68 0.68 0 0 Z " fill="#252526" transform="translate(481,326)"/>
<path d="M0 0 C7.33813334 -0.5644718 13.16088115 1.44672896 20 4 C12.885503 6.07768497 6.58448815 3.70434335 0 1 C0 0.67 0 0.34 0 0 Z " fill="#939393" transform="translate(309,211)"/>
<path d="M0 0 C2.96865509 2.54456151 4.3619751 5.48994665 6 9 C6.33 9 6.66 9 7 9 C7.33 13.29 7.66 17.58 8 22 C5.77949233 18.66923849 4.65526602 15.33143164 3.4375 11.5625 C3.21642578 10.89412109 2.99535156 10.22574219 2.76757812 9.53710938 C1.7325149 6.38188644 0.73730967 3.23919193 0 0 Z " fill="#3E3E3E" transform="translate(469,155)"/>
<path d="M0 0 C1.32 0 2.64 0 4 0 C4 0.99 4 1.98 4 3 C4.66 3 5.32 3 6 3 C6 3.66 6 4.32 6 5 C6.99 5.33 7.98 5.66 9 6 C9 6.66 9 7.32 9 8 C10.32 8.66 11.64 9.32 13 10 C13 11.65 13 13.3 13 15 C7.42857143 9.85714286 7.42857143 9.85714286 7 6 C6.34 6 5.68 6 5 6 C5 5.34 5 4.68 5 4 C4.360625 3.71125 3.72125 3.4225 3.0625 3.125 C1 2 1 2 0 0 Z " fill="#2B2B2F" transform="translate(458,304)"/>
<path d="M0 0 C0.66 0.33 1.32 0.66 2 1 C0.02 1.99 0.02 1.99 -2 3 C-2 3.66 -2 4.32 -2 5 C-7.57067277 6.59162079 -12.21101581 7.20674944 -18 7 C-14.81848518 5.14411636 -11.59892 4.40348149 -8.03125 3.578125 C-5.70995439 2.98525732 -5.70995439 2.98525732 -2.625 1.3125 C-1.325625 0.6628125 -1.325625 0.6628125 0 0 Z " fill="#B6B6B8" transform="translate(418,222)"/>
<path d="M0 0 C6.06907418 -0.27338172 10.77622054 0.53907555 16.5 2.5 C17.22703125 2.73847656 17.9540625 2.97695312 18.703125 3.22265625 C20.47223935 3.80460176 22.23665346 4.40080457 24 5 C18.31421794 6.89526069 13.26212136 4.8285524 7.93359375 2.69921875 C5.3348143 1.7594581 2.73490947 1.34186368 0 1 C0 0.67 0 0.34 0 0 Z " fill="#68686A" transform="translate(308,218)"/>
<path d="M0 0 C1.875 0.25 1.875 0.25 4 1 C4.66666667 2.33333333 5.33333333 3.66666667 6 5 C7.98045559 5.66179847 7.98045559 5.66179847 10 6 C10.66 6.66 11.32 7.32 12 8 C11.67 8.99 11.34 9.98 11 11 C10.34 10.67 9.68 10.34 9 10 C9 9.34 9 8.68 9 8 C8.01 8 7.02 8 6 8 C4.39453125 6.50390625 4.39453125 6.50390625 2.8125 4.5625 C2.28269531 3.92441406 1.75289062 3.28632813 1.20703125 2.62890625 C0 1 0 1 0 0 Z " fill="#C17B22" transform="translate(236,208)"/>
<path d="M0 0 C0.66 0 1.32 0 2 0 C2 2.64 2 5.28 2 8 C2.66 8.33 3.32 8.66 4 9 C3.34 9 2.68 9 2 9 C1.67 9.66 1.34 10.32 1 11 C0.67 10.01 0.34 9.02 0 8 C-0.66 8 -1.32 8 -2 8 C-2 6.02 -2 4.04 -2 2 C-1.34 2 -0.68 2 0 2 C0 1.34 0 0.68 0 0 Z " fill="#0C1010" transform="translate(205,152)"/>
<path d="M0 0 C1.0725 0.53625 2.145 1.0725 3.25 1.625 C3.25 3.605 3.25 5.585 3.25 7.625 C1.75 6.25 1.75 6.25 0.25 4.625 C0.25 3.965 0.25 3.305 0.25 2.625 C-2.72 2.13 -2.72 2.13 -5.75 1.625 C-5.75 2.285 -5.75 2.945 -5.75 3.625 C-6.41 3.625 -7.07 3.625 -7.75 3.625 C-7.75 2.635 -7.75 1.645 -7.75 0.625 C-4.61227723 -1.75966931 -3.83407554 -1.4058277 0 0 Z " fill="#151107" transform="translate(212.75,170.375)"/>
<path d="M0 0 C3.35111834 2.23407889 4.81553956 3.26215824 5.8125 7.25 C5.874375 8.1575 5.93625 9.065 6 10 C4.35 9.67 2.7 9.34 1 9 C1 8.01 1 7.02 1 6 C0.34 6 -0.32 6 -1 6 C-0.67 4.02 -0.34 2.04 0 0 Z " fill="#313131" transform="translate(425,168)"/>
<path d="M0 0 C0.66 0.66 1.32 1.32 2 2 C2.515625 2.391875 3.03125 2.78375 3.5625 3.1875 C5.70805041 5.89275922 5.68249806 8.63447946 6 12 C5.01 11.34 4.02 10.68 3 10 C3 9.01 3 8.02 3 7 C2.34 7 1.68 7 1 7 C1 6.01 1 5.02 1 4 C0.34 4 -0.32 4 -1 4 C-1.33 3.01 -1.66 2.02 -2 1 C-1.34 0.67 -0.68 0.34 0 0 Z " fill="#101012" transform="translate(409,311)"/>
<path d="M0 0 C3.99500618 1.3697164 6.80009492 3.25722422 10 6 C8.35 6.66 6.7 7.32 5 8 C4.67 7.01 4.34 6.02 4 5 C1.98491642 4.26676204 1.98491642 4.26676204 0 4 C0 2.68 0 1.36 0 0 Z " fill="#1C1B20" transform="translate(271,227)"/>
<path d="M0 0 C5.41342681 1.14514798 7.9342948 2.34012809 11 7 C9 8 9 8 5 8 C4.67 6.02 4.34 4.04 4 2 C2.68 2 1.36 2 0 2 C0 1.34 0 0.68 0 0 Z " fill="#656565" transform="translate(414,160)"/>
<path d="M0 0 C3.28788824 3.11016455 5.83735988 6.01618925 8 10 C6.35 10 4.7 10 3 10 C1.11608215 6.73454239 0.50712033 3.71888239 0 0 Z " fill="#353537" transform="translate(429,332)"/>
<path d="M0 0 C0.33 0 0.66 0 1 0 C1.35130264 5.35736523 1.35130264 5.35736523 1 8 C-0.9375 9.8125 -0.9375 9.8125 -3 11 C-3.33 11.99 -3.66 12.98 -4 14 C-4.66 14 -5.32 14 -6 14 C-4.16508812 9.25981099 -2.08058541 4.63586749 0 0 Z " fill="#515153" transform="translate(473,218)"/>
<path d="M0 0 C2.97 0.495 2.97 0.495 6 1 C6.66 3.64 7.32 6.28 8 9 C6.84775972 8.07038578 5.70340824 7.1309875 4.5625 6.1875 C3.60537109 5.40439453 3.60537109 5.40439453 2.62890625 4.60546875 C1 3 1 3 0 0 Z " fill="#422405" transform="translate(221,189)"/>
<path d="M0 0 C0.93972656 0.2165625 0.93972656 0.2165625 1.8984375 0.4375 C3.12433594 0.7159375 3.12433594 0.7159375 4.375 1 C5.18710938 1.185625 5.99921875 1.37125 6.8359375 1.5625 C8.95874951 2.06605239 8.95874951 2.06605239 11 2 C11.33 3.98 11.66 5.96 12 8 C9.525 7.01 9.525 7.01 7 6 C7 5.34 7 4.68 7 4 C6.21625 3.896875 5.4325 3.79375 4.625 3.6875 C2 3 2 3 0 0 Z " fill="#535956" transform="translate(245,187)"/>
<path d="M0 0 C5.50588235 0.48941176 5.50588235 0.48941176 7.875 2.9375 C9 5 9 5 9 7 C4.58110387 5.64978174 2.65654657 3.73884332 0 0 Z " fill="#B37120" transform="translate(235,170)"/>
<path d="M0 0 C6.28260706 -0.23268915 11.88019467 0.59545452 18 2 C18 2.33 18 2.66 18 3 C5.33029613 3.3690205 5.33029613 3.3690205 0 1 C0 0.67 0 0.34 0 0 Z " fill="#9E9EA0" transform="translate(332,224)"/>
<path d="M0 0 C3.3 0.33 6.6 0.66 10 1 C9.67 2.32 9.34 3.64 9 5 C7.02 5 5.04 5 3 5 C3.33 4.01 3.66 3.02 4 2 C2.68 1.67 1.36 1.34 0 1 C0 0.67 0 0.34 0 0 Z " fill="#313131" transform="translate(323,215)"/>
<path d="M0 0 C1.27875 0.28875 2.5575 0.5775 3.875 0.875 C4.95394531 1.11863281 4.95394531 1.11863281 6.0546875 1.3671875 C8 2 8 2 10 4 C3.84765625 4.87890625 3.84765625 4.87890625 2 5 C1.67 4.67 1.34 4.34 1 4 C0.34 4 -0.32 4 -1 4 C-0.67 2.68 -0.34 1.36 0 0 Z " fill="#131313" transform="translate(292,207)"/>
<path d="M0 0 C1.60495567 0.11442461 3.20898119 0.24194694 4.8125 0.375 C5.70582031 0.44460938 6.59914063 0.51421875 7.51953125 0.5859375 C10 1 10 1 13 3 C12.67 3.66 12.34 4.32 12 5 C10.68 4.34 9.36 3.68 8 3 C8 3.66 8 4.32 8 5 C7.01 5 6.02 5 5 5 C5 4.01 5 3.02 5 2 C3.35 1.67 1.7 1.34 0 1 C0 0.67 0 0.34 0 0 Z " fill="#424146" transform="translate(363,266)"/>
<path d="M0 0 C2.475 0.99 2.475 0.99 5 2 C4.01 2.33 3.02 2.66 2 3 C2 3.66 2 4.32 2 5 C5.465 4.505 5.465 4.505 9 4 C5.5647952 6.29013653 4.014669 6.17842973 0 6 C0 5.34 0 4.68 0 4 C-0.99 3.67 -1.98 3.34 -3 3 C-2.01 3 -1.02 3 0 3 C0 2.01 0 1.02 0 0 Z " fill="#100F14" transform="translate(305,247)"/>
<path d="M0 0 C0.33 0 0.66 0 1 0 C1.05420701 2.56278699 1.09377007 5.12441483 1.125 7.6875 C1.15013672 8.7693457 1.15013672 8.7693457 1.17578125 9.87304688 C1.21391569 14.04876781 0.8789919 17.2494138 -1 21 C-1.33 21 -1.66 21 -2 21 C-2.04241723 18.66705225 -2.04092937 16.33297433 -2 14 C-1.67 13.67 -1.34 13.34 -1 13 C-0.76518307 10.81707226 -0.58636677 8.62796826 -0.4375 6.4375 C-0.35371094 5.23996094 -0.26992188 4.04242188 -0.18359375 2.80859375 C-0.12300781 1.88175781 -0.06242187 0.95492187 0 0 Z " fill="#282828" transform="translate(477,197)"/>
<path d="M0 0 C4.05281712 1.22527029 7.44360764 2.69880494 11 5 C10.67 5.66 10.34 6.32 10 7 C7.36 6.01 4.72 5.02 2 4 C2 3.34 2 2.68 2 2 C1.34 2 0.68 2 0 2 C0 1.34 0 0.68 0 0 Z " fill="#BCC1BE" transform="translate(254,194)"/>
<path d="M0 0 C0.99 0.33 1.98 0.66 3 1 C3 1.66 3 2.32 3 3 C3.66 3 4.32 3 5 3 C7 6 7 6 8 9 C6.68 9 5.36 9 4 9 C0 2.25 0 2.25 0 0 Z " fill="#110C03" transform="translate(217,155)"/>
<path d="M0 0 C5.65020618 0.60108576 10.66164461 2.07528683 16 4 C11.69159779 5.43613407 8.26269264 4.33882404 4 3 C1.4375 1.375 1.4375 1.375 0 0 Z " fill="#C8C8C8" transform="translate(421,121)"/>
<path d="M0 0 C3.82946843 1.45255699 5.12050295 3.42895561 7 7 C6.01 7.33 5.02 7.66 4 8 C0 3.375 0 3.375 0 0 Z " fill="#141318" transform="translate(392,293)"/>
<path d="M0 0 C7.84179688 6.4453125 7.84179688 6.4453125 10 10 C10 10.66 10 11.32 10 12 C9.34 12 8.68 12 8 12 C7.566875 11.236875 7.13375 10.47375 6.6875 9.6875 C5.18171573 6.82704503 5.18171573 6.82704503 2.3125 5.4375 C1.549375 4.963125 0.78625 4.48875 0 4 C0 2.68 0 1.36 0 0 Z " fill="#9D9CA1" transform="translate(447,292)"/>
<path d="M0 0 C-2 3 -2 3 -4.1640625 3.51171875 C-5.38222656 3.59873047 -5.38222656 3.59873047 -6.625 3.6875 C-7.44226563 3.75324219 -8.25953125 3.81898438 -9.1015625 3.88671875 C-9.72804688 3.92410156 -10.35453125 3.96148437 -11 4 C-11 3.34 -11 2.68 -11 2 C-7.17010894 0.19769832 -4.21878192 -0.19622241 0 0 Z " fill="#BFBEC3" transform="translate(441,255)"/>
<path d="M0 0 C1.65 0 3.3 0 5 0 C5 1.65 5 3.3 5 5 C3.02 5 1.04 5 -1 5 C-0.67 3.35 -0.34 1.7 0 0 Z " fill="#16151A" transform="translate(319,254)"/>
<path d="M0 0 C4.11390262 0.81019497 8.2132475 1.68135227 12.3125 2.5625 C13.56675781 2.83191406 14.82101562 3.10132813 16.11328125 3.37890625 C17.54220703 3.68634766 17.54220703 3.68634766 19 4 C19 4.33 19 4.66 19 5 C17.09983676 4.7624796 15.19983472 4.52357981 13.30078125 4.27734375 C11.80119783 4.09657903 10.2982088 3.94162091 8.79296875 3.81640625 C3.41975309 3.3279321 3.41975309 3.3279321 1 1.4375 C0.67 0.963125 0.34 0.48875 0 0 Z " fill="#D0D0D2" transform="translate(317,221)"/>
<path d="M0 0 C1.32 0.33 2.64 0.66 4 1 C3.34 1 2.68 1 2 1 C2 2.65 2 4.3 2 6 C-3.75 5.25 -3.75 5.25 -6 3 C-5.195625 2.87625 -4.39125 2.7525 -3.5625 2.625 C-2.716875 2.41875 -1.87125 2.2125 -1 2 C-0.67 1.34 -0.34 0.68 0 0 Z " fill="#36353A" transform="translate(303,246)"/>
<path d="M0 0 C2.64 0.33 5.28 0.66 8 1 C8 1.66 8 2.32 8 3 C9.32 3 10.64 3 12 3 C12 3.66 12 4.32 12 5 C9.36 4.67 6.72 4.34 4 4 C4 3.34 4 2.68 4 2 C2.68 1.34 1.36 0.68 0 0 Z " fill="#B6B5BA" transform="translate(307,246)"/>
<path d="M0 0 C0.33 0 0.66 0 1 0 C1.35050464 5.841744 1.16727335 9.8531808 -2 15 C-3.53445094 11.93109813 -2.54984289 9.29905734 -2 6 C-1.34 6 -0.68 6 0 6 C0 4.02 0 2.04 0 0 Z " fill="#5A5A5A" transform="translate(433,195)"/>
<path d="M0 0 C0 0.66 0 1.32 0 2 C1.65 2 3.3 2 5 2 C5 2.66 5 3.32 5 4 C4.34 4 3.68 4 3 4 C3 4.66 3 5.32 3 6 C-0.37503669 4.8141763 -2.64722731 3.72426311 -5 1 C-2 0 -2 0 0 0 Z " fill="#212623" transform="translate(262,193)"/>
<path d="M0 0 C3.3985407 1.1328469 4.73413495 2.26533528 7 5 C7 6.32 7 7.64 7 9 C6.34 9 5.68 9 5 9 C4.731875 8.360625 4.46375 7.72125 4.1875 7.0625 C3.11332248 4.66868314 3.11332248 4.66868314 0 4 C0 2.68 0 1.36 0 0 Z " fill="#D1852A" transform="translate(218,188)"/>
<path d="M0 0 C-0.33 0.66 -0.66 1.32 -1 2 C-3 2.33333333 -5 2.66666667 -7 3 C-7.33 3.66 -7.66 4.32 -8 5 C-8 3.35 -8 1.7 -8 0 C-5.13822943 -1.43088528 -3.06624227 -0.59991697 0 0 Z " fill="#0E0D12" transform="translate(346,263)"/>
<path d="M0 0 C2.31 0 4.62 0 7 0 C6.67 0.99 6.34 1.98 6 3 C3.03 3 0.06 3 -3 3 C-2.01 2.67 -1.02 2.34 0 2 C0 1.34 0 0.68 0 0 Z " fill="#0D0D0F" transform="translate(337,220)"/>
<path d="M0 0 C2 3 2 3 1.75 5.5625 C1 8 1 8 -1 10 C-1.33 7.03 -1.66 4.06 -2 1 C-1.34 0.67 -0.68 0.34 0 0 Z " fill="#111111" transform="translate(479,173)"/>
<path d="M0 0 C1.4835001 0.42257276 2.96176424 0.86356322 4.4375 1.3125 C5.67306641 1.67794922 5.67306641 1.67794922 6.93359375 2.05078125 C7.95646484 2.52064453 7.95646484 2.52064453 9 3 C9.33 3.99 9.66 4.98 10 6 C9.34 6 8.68 6 8 6 C8 5.34 8 4.68 8 4 C6.02 4.33 4.04 4.66 2 5 C2 4.34 2 3.68 2 3 C1.01 2.67 0.02 2.34 -1 2 C-0.67 1.34 -0.34 0.68 0 0 Z " fill="#251C0B" transform="translate(212,152)"/>
<path d="M0 0 C1.32 0.33 2.64 0.66 4 1 C4 1.99 4 2.98 4 4 C4.66 4 5.32 4 6 4 C6.66 5.32 7.32 6.64 8 8 C6.35 7.67 4.7 7.34 3 7 C3 5.68 3 4.36 3 3 C2.01 2.67 1.02 2.34 0 2 C0 1.34 0 0.68 0 0 Z " fill="#3D2104" transform="translate(207,142)"/>
<path d="M0 0 C1.14926266 0.95421808 2.29430541 1.91352045 3.4375 2.875 C4.07558594 3.40867188 4.71367187 3.94234375 5.37109375 4.4921875 C7 6 7 6 8 8 C6.35 8 4.7 8 3 8 C1.58101234 5.35122304 0.68088981 2.91985181 0 0 Z " fill="#361901" transform="translate(222,158)"/>
<path d="M0 0 C1.65 0 3.3 0 5 0 C5.33 1.65 5.66 3.3 6 5 C5.01 5 4.02 5 3 5 C2.67 4.01 2.34 3.02 2 2 C1.34 2 0.68 2 0 2 C0 1.34 0 0.68 0 0 Z " fill="#CD8026" transform="translate(211,144)"/>
<path d="M0 0 C2.64 0.33 5.28 0.66 8 1 C8.33 2.65 8.66 4.3 9 6 C4.75177626 5.52797514 2.80010291 3.03344482 0 0 Z " fill="#5B5B5B" transform="translate(445,130)"/>
<path d="M0 0 C2.97 0.33 5.94 0.66 9 1 C9.33 2.32 9.66 3.64 10 5 C8.51800098 4.55090939 7.03944764 4.09043436 5.5625 3.625 C4.73878906 3.36976563 3.91507812 3.11453125 3.06640625 2.8515625 C1 2 1 2 0 0 Z " fill="#B5B4B9" transform="translate(291,238)"/>
<path d="M0 0 C0.33 0.66 0.66 1.32 1 2 C1.99 2.33 2.98 2.66 4 3 C4 3.66 4 4.32 4 5 C2.68528432 4.71848913 1.37324233 4.42446661 0.0625 4.125 C-1.03384766 3.88136719 -1.03384766 3.88136719 -2.15234375 3.6328125 C-4 3 -4 3 -5 1 C-3 0 -3 0 0 0 Z " fill="#575958" transform="translate(278,203)"/>
<path d="M0 0 C0.99 0.33 1.98 0.66 3 1 C2.67 2.65 2.34 4.3 2 6 C1.01 6 0.02 6 -1 6 C-1.33 4.35 -1.66 2.7 -2 1 C-1.34 0.67 -0.68 0.34 0 0 Z " fill="#130C03" transform="translate(227,165)"/>
<path d="M0 0 C0.66 0 1.32 0 2 0 C2.66 0.99 3.32 1.98 4 3 C6.05003955 4.19232613 6.05003955 4.19232613 8 5 C7.67 6.32 7.34 7.64 7 9 C5.83037314 7.69013727 4.66437056 6.3770374 3.5 5.0625 C2.8503125 4.33160156 2.200625 3.60070312 1.53125 2.84765625 C0 1 0 1 0 0 Z " fill="#BE7724" transform="translate(220,154)"/>
<path d="M0 0 C0.99 0 1.98 0 3 0 C3 0.66 3 1.32 3 2 C3.99 2 4.98 2 6 2 C7.6875 4.5 7.6875 4.5 9 7 C7.35 6.67 5.7 6.34 4 6 C4 5.34 4 4.68 4 4 C3.34 3.67 2.68 3.34 2 3 C2 2.34 2 1.68 2 1 C1.34 0.67 0.68 0.34 0 0 Z " fill="#0F0F10" transform="translate(462,306)"/>
<path d="M0 0 C2.64752004 2.57784846 4.94432065 4.91648098 7 8 C6.01 8.33 5.02 8.66 4 9 C3.67 7.68 3.34 6.36 3 5 C2.34 5 1.68 5 1 5 C0.67 3.35 0.34 1.7 0 0 Z " fill="#46454A" transform="translate(381,277)"/>
<path d="M0 0 C2.375 -0.1875 2.375 -0.1875 5 0 C5.66 0.99 6.32 1.98 7 3 C6.01 4.485 6.01 4.485 5 6 C3.35 4.02 1.7 2.04 0 0 Z " fill="#242328" transform="translate(430,272)"/>
<path d="M0 0 C3.73487777 0.4979837 5.81237635 0.87491756 9 3 C9 3.66 9 4.32 9 5 C5 5 5 5 3.375 3.625 C2.92125 3.08875 2.4675 2.5525 2 2 C1.34 1.34 0.68 0.68 0 0 Z " fill="#717075" transform="translate(328,262)"/>
<path d="M0 0 C7.75 -0.125 7.75 -0.125 10 1 C10 1.66 10 2.32 10 3 C2.25 2.25 2.25 2.25 0 0 Z " fill="#B0AFB4" transform="translate(330,256)"/>
<path d="M0 0 C4.3890815 0.51035831 7.33708062 1.52214277 11 4 C9.3125 4.6875 9.3125 4.6875 7 5 C4.20155619 3.6007781 2.21208617 2.21208617 0 0 Z " fill="#B0AFB4" transform="translate(319,251)"/>
<path d="M0 0 C2.97 0.495 2.97 0.495 6 1 C5.67 2.32 5.34 3.64 5 5 C2.525 4.01 2.525 4.01 0 3 C0 2.01 0 1.02 0 0 Z " fill="#1F1503" transform="translate(245,180)"/>
<path d="M0 0 C0.99 0.495 0.99 0.495 2 1 C2 1.99 2 2.98 2 4 C2.66 4 3.32 4 4 4 C4.66 5.32 5.32 6.64 6 8 C4.35 8 2.7 8 1 8 C0.67 5.36 0.34 2.72 0 0 Z " fill="#3D3737" transform="translate(215,170)"/>
<path d="M0 0 C0.66 0.33 1.32 0.66 2 1 C2 1.99 2 2.98 2 4 C2.66 4.33 3.32 4.66 4 5 C2.02 5.99 2.02 5.99 0 7 C-1.125 2.25 -1.125 2.25 0 0 Z " fill="#0D0C11" transform="translate(400,300)"/>
<path d="M0 0 C1.98 0.495 1.98 0.495 4 1 C3.67 2.98 3.34 4.96 3 7 C1.68 5.35 0.36 3.7 -1 2 C-0.67 1.34 -0.34 0.68 0 0 Z " fill="#1F1E23" transform="translate(455,297)"/>
<path d="M0 0 C3.3 0.99 6.6 1.98 10 3 C10 3.66 10 4.32 10 5 C3.375 4.25 3.375 4.25 0 2 C0 1.34 0 0.68 0 0 Z " fill="#CCCCCC" transform="translate(285,210)"/>
<path d="M0 0 C0.33 0 0.66 0 1 0 C1 2.31 1 4.62 1 7 C-0.9375 6.1875 -0.9375 6.1875 -3 5 C-3.33 4.01 -3.66 3.02 -4 2 C-3.01 2 -2.02 2 -1 2 C-0.67 1.34 -0.34 0.68 0 0 Z " fill="#E8902A" transform="translate(247,172)"/>
<path d="M0 0 C0.33 0 0.66 0 1 0 C1 2.31 1 4.62 1 7 C0.34 7 -0.32 7 -1 7 C-1.33 7.66 -1.66 8.32 -2 9 C-2.25 3.375 -2.25 3.375 0 0 Z " fill="#ABABAB" transform="translate(474,211)"/>
<path d="M0 0 C1.98 0.495 1.98 0.495 4 1 C4 2.32 4 3.64 4 5 C2.35 4.67 0.7 4.34 -1 4 C-0.67 2.68 -0.34 1.36 0 0 Z " fill="#0A120F" transform="translate(250,185)"/>
<path d="M0 0 C2.475 0.495 2.475 0.495 5 1 C5 2.32 5 3.64 5 5 C4.01 5 3.02 5 2 5 C1.34 3.35 0.68 1.7 0 0 Z " fill="#101010" transform="translate(420,167)"/>
<path d="M0 0 C1.32 0 2.64 0 4 0 C4.33 2.31 4.66 4.62 5 7 C1.18461538 4.53846154 1.18461538 4.53846154 0.25 1.8125 C0.1675 1.214375 0.085 0.61625 0 0 Z " fill="#1B1C15" transform="translate(221,164)"/>
<path d="M0 0 C1.32 0 2.64 0 4 0 C4 0.99 4 1.98 4 3 C4.66 3 5.32 3 6 3 C6.33 4.32 6.66 5.64 7 7 C3.00003714 5.66667905 2.16217663 3.5042173 0 0 Z " fill="#B66C19" transform="translate(228,163)"/>
<path d="M0 0 C1.65 0 3.3 0 5 0 C5 2.31 5 4.62 5 7 C1.18461538 4.53846154 1.18461538 4.53846154 0.25 1.8125 C0.1675 1.214375 0.085 0.61625 0 0 Z " fill="#515151" transform="translate(458,140)"/>
<path d="M0 0 C2.97 0.495 2.97 0.495 6 1 C6 2.98 6 4.96 6 7 C1.125 2.25 1.125 2.25 0 0 Z " fill="#4B4B4C" transform="translate(465,312)"/>
<path d="M0 0 C1.98 0.99 1.98 0.99 4 2 C4 2.66 4 3.32 4 4 C4.66 4 5.32 4 6 4 C6 4.99 6 5.98 6 7 C5.34 7 4.68 7 4 7 C4 6.34 4 5.68 4 5 C3.01 4.67 2.02 4.34 1 4 C0.3125 1.9375 0.3125 1.9375 0 0 Z " fill="#A8A7AB" transform="translate(459,306)"/>
<path d="M0 0 C-2.5654594 2.5654594 -4.47686668 2.54046087 -8 3 C-8 2.34 -8 1.68 -8 1 C-4.93251126 -0.86240388 -3.40254489 -1.2151946 0 0 Z " fill="#A6A5AA" transform="translate(449,252)"/>
<path d="M0 0 C-5.75 3 -5.75 3 -8 3 C-8 2.34 -8 1.68 -8 1 C-8.99 0.67 -9.98 0.34 -11 0 C-9.54263913 -0.19491452 -8.08405407 -0.38069358 -6.625 -0.5625 C-5.81289063 -0.66691406 -5.00078125 -0.77132812 -4.1640625 -0.87890625 C-2 -1 -2 -1 0 0 Z " fill="#303032" transform="translate(418,223)"/>
<path d="M0 0 C2.64 1.65 5.28 3.3 8 5 C4.86650268 6.04449911 4.01031744 5.93423645 1 5 C0.67 3.35 0.34 1.7 0 0 Z " fill="#292A2A" transform="translate(261,219)"/>
<path d="M0 0 C2.31 0.66 4.62 1.32 7 2 C6.67 2.99 6.34 3.98 6 5 C2.83884224 3.63016497 2.0072908 3.0109362 0 0 Z " fill="#321900" transform="translate(245,213)"/>
<path d="M0 0 C2.875 0.1875 2.875 0.1875 6 1 C7.375 3.5625 7.375 3.5625 8 6 C4.63408134 4.55746343 2.48952921 2.66735273 0 0 Z " fill="#61615D" transform="translate(237,181)"/>
<path d="M0 0 C2.5 2.3125 2.5 2.3125 5 5 C5 5.99 5 6.98 5 8 C3.68 7.67 2.36 7.34 1 7 C0.67 4.69 0.34 2.38 0 0 Z " fill="#554F50" transform="translate(221,178)"/>
<path d="M0 0 C2.31 0 4.62 0 7 0 C6.01 1.485 6.01 1.485 5 3 C3.35 2.67 1.7 2.34 0 2 C0 1.34 0 0.68 0 0 Z " fill="#0F0F0F" transform="translate(406,113)"/>
</svg>
